<?xml version="1.0" encoding="UTF-8" standalone="no"?>
<!-- Created with Inkscape (http://www.inkscape.org/) -->
<svg xmlns:inkscape="http://www.inkscape.org/namespaces/inkscape" xmlns:rdf="http://www.w3.org/1999/02/22-rdf-syntax-ns#" xmlns="http://www.w3.org/2000/svg" xmlns:xlink="http://www.w3.org/1999/xlink" xmlns:ns1="http://sozi.baierouge.fr" xmlns:cc="http://creativecommons.org/ns#" xmlns:sodipodi="http://sodipodi.sourceforge.net/DTD/sodipodi-0.dtd" xmlns:dc="http://purl.org/dc/elements/1.1/" id="svg2" xml:space="preserve" viewBox="0 0 272.76 339.76" version="1.1" inkscape:version="0.91 r13725">
  <defs id="defs6">
    <linearGradient id="linearGradient24" y2="276.97" gradientUnits="userSpaceOnUse" x2="87.314" gradientTransform="matrix(.65176 .46392 .46392 -.65176 .0073451 271.8)" y1="276.97" x1="7.6841">
      <stop id="stop26" style="stop-color:#66542e" offset="0"/>
      <stop id="stop28" style="stop-color:#4f402f" offset=".1137"/>
      <stop id="stop30" style="stop-color:#3f3130" offset=".2392"/>
      <stop id="stop32" style="stop-color:#362930" offset=".3804"/>
      <stop id="stop34" style="stop-color:#332630" offset=".57250"/>
      <stop id="stop36" style="stop-color:#352b31" offset=".83920"/>
      <stop id="stop38" style="stop-color:#373132" offset="1"/>
    </linearGradient>
    <clipPath id="clipPath46">
      <path id="path48" d="m100-0.18838h113v205h-113v-205z" inkscape:connector-curvature="0"/>
    </clipPath>
    <mask id="mask50">
      <g id="g52">
        <g id="g54" clip-path="url(#clipPath46)">
          <path id="path56" style="fill:#000000;fill-opacity:.14060" d="m100-0.18838h113v205h-113v-205z" inkscape:connector-curvature="0"/>
        </g>
      </g>
    </mask>
    <clipPath id="clipPath62">
      <path id="path64" d="m100-0.18838h113v205h-113v-205z" inkscape:connector-curvature="0"/>
    </clipPath>
    <clipPath id="clipPath66">
      <path id="path68" d="m100 0h113v205h-113v-205z" inkscape:connector-curvature="0"/>
    </clipPath>
    <linearGradient id="linearGradient74" y2="3046" gradientUnits="userSpaceOnUse" x2="6178.5" gradientTransform="matrix(.65176 .46392 -.46392 .65176 -2426.8 -4721.8)" y1="3046" x1="6098.8">
      <stop id="stop76" style="stop-color:#a48058" offset="0"/>
      <stop id="stop78" style="stop-color:#6c4d2c" offset=".56080"/>
      <stop id="stop80" style="stop-color:#45290d" offset="1"/>
    </linearGradient>
    <clipPath id="clipPath108">
      <path id="path110" d="m187 81.812h7v10h-7v-10z" inkscape:connector-curvature="0"/>
    </clipPath>
    <mask id="mask112">
      <g id="g114">
        <g id="g116" clip-path="url(#clipPath108)">
          <path id="path118" style="fill:#000000;fill-opacity:.58980" d="m187 81.812h7v10h-7v-10z" inkscape:connector-curvature="0"/>
        </g>
      </g>
    </mask>
    <clipPath id="clipPath124">
      <path id="path126" d="m187 81.812h7v10h-7v-10z" inkscape:connector-curvature="0"/>
    </clipPath>
    <clipPath id="clipPath128">
      <path id="path130" d="m187 82h7v10h-7v-10z" inkscape:connector-curvature="0"/>
    </clipPath>
    <linearGradient id="linearGradient136" y2="3218.6" gradientUnits="userSpaceOnUse" x2="9729" gradientTransform="matrix(.4756 .64328 -.64328 .4756 -2359.7 -7693)" y1="3218.6" x1="9714.4">
      <stop id="stop138" style="stop-color:#a89a8a" offset="0"/>
      <stop id="stop140" style="stop-color:#86776c" offset=".38820"/>
      <stop id="stop142" style="stop-color:#4a3836" offset="1"/>
    </linearGradient>
    <clipPath id="clipPath170">
      <path id="path172" d="m157 133.81h5v5h-5v-5z" inkscape:connector-curvature="0"/>
    </clipPath>
    <mask id="mask174">
      <g id="g176">
        <g id="g178" clip-path="url(#clipPath170)">
          <path id="path180" style="fill:#000000;fill-opacity:.58980" d="m157 133.81h5v5h-5v-5z" inkscape:connector-curvature="0"/>
        </g>
      </g>
    </mask>
    <clipPath id="clipPath186">
      <path id="path188" d="m157 133.81h5v5h-5v-5z" inkscape:connector-curvature="0"/>
    </clipPath>
    <clipPath id="clipPath190">
      <path id="path192" d="m157 134h5v5h-5v-5z" inkscape:connector-curvature="0"/>
    </clipPath>
    <linearGradient id="linearGradient198" y2="2638.4" gradientUnits="userSpaceOnUse" x2="12002" gradientTransform="matrix(.33296 .72744 -.72744 .33296 -1915.6 -9468)" y1="2638.4" x1="11995">
      <stop id="stop200" style="stop-color:#a89a8a" offset="0"/>
      <stop id="stop202" style="stop-color:#86776c" offset=".38820"/>
      <stop id="stop204" style="stop-color:#4a3836" offset="1"/>
    </linearGradient>
    <clipPath id="clipPath232">
      <path id="path234" d="m191 66.812h10v13h-10v-13z" inkscape:connector-curvature="0"/>
    </clipPath>
    <mask id="mask236">
      <g id="g238">
        <g id="g240" clip-path="url(#clipPath232)">
          <path id="path242" style="fill:#000000;fill-opacity:.58980" d="m191 66.812h10v13h-10v-13z" inkscape:connector-curvature="0"/>
        </g>
      </g>
    </mask>
    <clipPath id="clipPath248">
      <path id="path250" d="m191 66.812h10v13h-10v-13z" inkscape:connector-curvature="0"/>
    </clipPath>
    <clipPath id="clipPath252">
      <path id="path254" d="m191 67h10v13h-10v-13z" inkscape:connector-curvature="0"/>
    </clipPath>
    <linearGradient id="linearGradient260" y2="3217" gradientUnits="userSpaceOnUse" x2="9728.1" gradientTransform="matrix(.47608 .64296 -.64296 .47608 -2356.6 -7698.6)" y1="3217" x1="9704.9">
      <stop id="stop262" style="stop-color:#a89a8a" offset="0"/>
      <stop id="stop264" style="stop-color:#86776c" offset=".38820"/>
      <stop id="stop266" style="stop-color:#4a3836" offset="1"/>
    </linearGradient>
    <clipPath id="clipPath294">
      <path id="path296" d="m150 116.81h14v11h-14v-11z" inkscape:connector-curvature="0"/>
    </clipPath>
    <mask id="mask298">
      <g id="g300">
        <g id="g302" clip-path="url(#clipPath294)">
          <path id="path304" style="fill:#000000;fill-opacity:.42190" d="m150 116.81h14v11h-14v-11z" inkscape:connector-curvature="0"/>
        </g>
      </g>
    </mask>
    <clipPath id="clipPath310">
      <path id="path312" d="m150 116.81h14v11h-14v-11z" inkscape:connector-curvature="0"/>
    </clipPath>
    <clipPath id="clipPath314">
      <path id="path316" d="m150 117h14v11h-14v-11z" inkscape:connector-curvature="0"/>
    </clipPath>
    <linearGradient id="linearGradient322" y2="1295.1" gradientUnits="userSpaceOnUse" x2="1595.6" gradientTransform="matrix(.78728 .142 -.142 .78728 -885.99 -1118)" y1="1295.1" x1="1556.1">
      <stop id="stop324" style="stop-color:#a89a8a" offset="0"/>
      <stop id="stop326" style="stop-color:#86776c" offset=".38820"/>
      <stop id="stop328" style="stop-color:#4a3836" offset="1"/>
    </linearGradient>
    <clipPath id="clipPath356">
      <path id="path358" d="m151 104.81h19v17h-19v-17z" inkscape:connector-curvature="0"/>
    </clipPath>
    <mask id="mask360">
      <g id="g362">
        <g id="g364" clip-path="url(#clipPath356)">
          <path id="path366" style="fill:#000000;fill-opacity:.42190" d="m151 104.81h19v17h-19v-17z" inkscape:connector-curvature="0"/>
        </g>
      </g>
    </mask>
    <clipPath id="clipPath372">
      <path id="path374" d="m151 104.81h19v17h-19v-17z" inkscape:connector-curvature="0"/>
    </clipPath>
    <clipPath id="clipPath376">
      <path id="path378" d="m151 105h19v17h-19v-17z" inkscape:connector-curvature="0"/>
    </clipPath>
    <linearGradient id="linearGradient384" y2="1290.7" gradientUnits="userSpaceOnUse" x2="1615.8" gradientTransform="matrix(.78728 .142 -.142 .78728 -885.39 -1124.4)" y1="1290.7" x1="1558.3">
      <stop id="stop386" style="stop-color:#a89a8a" offset="0"/>
      <stop id="stop388" style="stop-color:#86776c" offset=".38820"/>
      <stop id="stop390" style="stop-color:#4a3836" offset="1"/>
    </linearGradient>
    <clipPath id="clipPath418">
      <path id="path420" d="m132 138.81h13v8h-13v-8z" inkscape:connector-curvature="0"/>
    </clipPath>
    <mask id="mask422">
      <g id="g424">
        <g id="g426" clip-path="url(#clipPath418)">
          <path id="path428" style="fill:#000000;fill-opacity:.42190" d="m132 138.81h13v8h-13v-8z" inkscape:connector-curvature="0"/>
        </g>
      </g>
    </mask>
    <clipPath id="clipPath434">
      <path id="path436" d="m132 138.81h13v8h-13v-8z" inkscape:connector-curvature="0"/>
    </clipPath>
    <clipPath id="clipPath438">
      <path id="path440" d="m132 139h13v8h-13v-8z" inkscape:connector-curvature="0"/>
    </clipPath>
    <linearGradient id="linearGradient446" y2="1296" gradientUnits="userSpaceOnUse" x2="1591.2" gradientTransform="matrix(.78728 .14192 -.14192 .78728 -903.71 -1098)" y1="1296" x1="1555">
      <stop id="stop448" style="stop-color:#a89a8a" offset="0"/>
      <stop id="stop450" style="stop-color:#86776c" offset=".38820"/>
      <stop id="stop452" style="stop-color:#4a3836" offset="1"/>
    </linearGradient>
    <clipPath id="clipPath480">
      <path id="path482" d="m113 154.81h11v8h-11v-8z" inkscape:connector-curvature="0"/>
    </clipPath>
    <mask id="mask484">
      <g id="g486">
        <g id="g488" clip-path="url(#clipPath480)">
          <path id="path490" style="fill:#000000;fill-opacity:.42190" d="m113 154.81h11v8h-11v-8z" inkscape:connector-curvature="0"/>
        </g>
      </g>
    </mask>
    <clipPath id="clipPath496">
      <path id="path498" d="m113 154.81h11v8h-11v-8z" inkscape:connector-curvature="0"/>
    </clipPath>
    <clipPath id="clipPath500">
      <path id="path502" d="m113 155h11v8h-11v-8z" inkscape:connector-curvature="0"/>
    </clipPath>
    <linearGradient id="linearGradient508" y2="1296.1" gradientUnits="userSpaceOnUse" x2="1585.1" gradientTransform="matrix(.78728 .14184 -.14184 .78728 -922.83 -1082.1)" y1="1296.1" x1="1553.8">
      <stop id="stop510" style="stop-color:#a89a8a" offset="0"/>
      <stop id="stop512" style="stop-color:#86776c" offset=".38820"/>
      <stop id="stop514" style="stop-color:#4a3836" offset="1"/>
    </linearGradient>
    <clipPath id="clipPath542">
      <path id="path544" d="m110 159.81h8v7h-8v-7z" inkscape:connector-curvature="0"/>
    </clipPath>
    <mask id="mask546">
      <g id="g548">
        <g id="g550" clip-path="url(#clipPath542)">
          <path id="path552" style="fill:#000000;fill-opacity:.42190" d="m110 159.81h8v7h-8v-7z" inkscape:connector-curvature="0"/>
        </g>
      </g>
    </mask>
    <clipPath id="clipPath558">
      <path id="path560" d="m110 159.81h8v7h-8v-7z" inkscape:connector-curvature="0"/>
    </clipPath>
    <clipPath id="clipPath562">
      <path id="path564" d="m110 160h8v7h-8v-7z" inkscape:connector-curvature="0"/>
    </clipPath>
    <linearGradient id="linearGradient570" y2="1293.9" gradientUnits="userSpaceOnUse" x2="1570.9" gradientTransform="matrix(.78736 .14152 -.14152 .78736 -923.27 -1074.8)" y1="1293.9" x1="1548.5">
      <stop id="stop572" style="stop-color:#a89a8a" offset="0"/>
      <stop id="stop574" style="stop-color:#86776c" offset=".38820"/>
      <stop id="stop576" style="stop-color:#4a3836" offset="1"/>
    </linearGradient>
    <clipPath id="clipPath604">
      <path id="path606" d="m100 179.81h12v5h-12v-5z" inkscape:connector-curvature="0"/>
    </clipPath>
    <mask id="mask608">
      <g id="g610">
        <g id="g612" clip-path="url(#clipPath604)">
          <path id="path614" style="fill:#000000;fill-opacity:.42190" d="m100 179.81h12v5h-12v-5z" inkscape:connector-curvature="0"/>
        </g>
      </g>
    </mask>
    <clipPath id="clipPath620">
      <path id="path622" d="m100 179.81h12v5h-12v-5z" inkscape:connector-curvature="0"/>
    </clipPath>
    <clipPath id="clipPath624">
      <path id="path626" d="m100 180h12v5h-12v-5z" inkscape:connector-curvature="0"/>
    </clipPath>
    <linearGradient id="linearGradient632" y2="1298.5" gradientUnits="userSpaceOnUse" x2="1585.8" gradientTransform="matrix(.78728 .14192 -.14192 .78728 -935.39 -1060.1)" y1="1298.5" x1="1555">
      <stop id="stop634" style="stop-color:#a89a8a" offset="0"/>
      <stop id="stop636" style="stop-color:#86776c" offset=".38820"/>
      <stop id="stop638" style="stop-color:#4a3836" offset="1"/>
    </linearGradient>
    <clipPath id="clipPath666">
      <path id="path668" d="m169 62.812h18v20h-18v-20z" inkscape:connector-curvature="0"/>
    </clipPath>
    <mask id="mask670">
      <g id="g672">
        <g id="g674" clip-path="url(#clipPath666)">
          <path id="path676" style="fill:#000000;fill-opacity:.42190" d="m169 62.812h18v20h-18v-20z" inkscape:connector-curvature="0"/>
        </g>
      </g>
    </mask>
    <clipPath id="clipPath682">
      <path id="path684" d="m169 62.812h18v20h-18v-20z" inkscape:connector-curvature="0"/>
    </clipPath>
    <clipPath id="clipPath686">
      <path id="path688" d="m169 63h18v20h-18v-20z" inkscape:connector-curvature="0"/>
    </clipPath>
    <linearGradient id="linearGradient694" y2="1288.8" gradientUnits="userSpaceOnUse" x2="1615.1" gradientTransform="matrix(.78728 .14208 -.14208 .78728 -868.07 -1163.7)" y1="1288.8" x1="1558.5">
      <stop id="stop696" style="stop-color:#a89a8a" offset="0"/>
      <stop id="stop698" style="stop-color:#86776c" offset=".38820"/>
      <stop id="stop700" style="stop-color:#4a3836" offset="1"/>
    </linearGradient>
    <clipPath id="clipPath728">
      <path id="path730" d="m95 32.812h92v166h-92v-166z" inkscape:connector-curvature="0"/>
    </clipPath>
    <mask id="mask732">
      <g id="g734">
        <g id="g736" clip-path="url(#clipPath728)">
          <path id="path738" style="fill:#000000;fill-opacity:.14060" d="m95 32.812h92v166h-92v-166z" inkscape:connector-curvature="0"/>
        </g>
      </g>
    </mask>
    <clipPath id="clipPath744">
      <path id="path746" d="m95 32.812h92v166h-92v-166z" inkscape:connector-curvature="0"/>
    </clipPath>
    <clipPath id="clipPath748">
      <path id="path750" d="m95 33h92v166h-92v-166z" inkscape:connector-curvature="0"/>
    </clipPath>
    <linearGradient id="linearGradient756" y2="1190.6" gradientUnits="userSpaceOnUse" x2="1750.1" gradientTransform="matrix(.78728 .142 -.142 .78728 -941.31 -1046.7)" y1="1190.6" x1="1579.5">
      <stop id="stop758" style="stop-color:#a48058" offset="0"/>
      <stop id="stop760" style="stop-color:#6c4d2c" offset=".56080"/>
      <stop id="stop762" style="stop-color:#45290d" offset="1"/>
    </linearGradient>
    <linearGradient id="linearGradient796" y2="105.43" gradientUnits="userSpaceOnUse" x2="197.08" gradientTransform="matrix(.79888 -.04224 -.04224 -.79888 .0072057 271.8)" y1="105.43" x1="168.66">
      <stop id="stop798" style="stop-color:#66542e" offset="0"/>
      <stop id="stop800" style="stop-color:#4f402f" offset=".1137"/>
      <stop id="stop802" style="stop-color:#3f3130" offset=".2392"/>
      <stop id="stop804" style="stop-color:#362930" offset=".3804"/>
      <stop id="stop806" style="stop-color:#332630" offset=".57250"/>
      <stop id="stop808" style="stop-color:#352b31" offset=".83920"/>
      <stop id="stop810" style="stop-color:#373132" offset="1"/>
    </linearGradient>
    <clipPath id="clipPath818">
      <path id="path820" d="m131 141.81h19v69h-19v-69z" inkscape:connector-curvature="0"/>
    </clipPath>
    <mask id="mask822">
      <g id="g824">
        <g id="g826" clip-path="url(#clipPath818)">
          <path id="path828" style="fill:#000000;fill-opacity:.14060" d="m131 141.81h19v69h-19v-69z" inkscape:connector-curvature="0"/>
        </g>
      </g>
    </mask>
    <clipPath id="clipPath834">
      <path id="path836" d="m131 141.81h19v69h-19v-69z" inkscape:connector-curvature="0"/>
    </clipPath>
    <clipPath id="clipPath838">
      <path id="path840" d="m131 142h19v69h-19v-69z" inkscape:connector-curvature="0"/>
    </clipPath>
    <linearGradient id="linearGradient846" y2="-480.97" gradientUnits="userSpaceOnUse" x2="-385.78" gradientTransform="matrix(.79888 -.04248 .04248 .79888 481.1 543.67)" y1="-480.97" x1="-407.91">
      <stop id="stop848" style="stop-color:#a48058" offset="0"/>
      <stop id="stop850" style="stop-color:#6c4d2c" offset=".56080"/>
      <stop id="stop852" style="stop-color:#45290d" offset="1"/>
    </linearGradient>
    <clipPath id="clipPath880">
      <path id="path882" d="m130 153.81h8v49h-8v-49z" inkscape:connector-curvature="0"/>
    </clipPath>
    <mask id="mask884">
      <g id="g886">
        <g id="g888" clip-path="url(#clipPath880)">
          <path id="path890" style="fill:#000000;fill-opacity:.14060" d="m130 153.81h8v49h-8v-49z" inkscape:connector-curvature="0"/>
        </g>
      </g>
    </mask>
    <clipPath id="clipPath896">
      <path id="path898" d="m130 153.81h8v49h-8v-49z" inkscape:connector-curvature="0"/>
    </clipPath>
    <clipPath id="clipPath900">
      <path id="path902" d="m130 154h8v49h-8v-49z" inkscape:connector-curvature="0"/>
    </clipPath>
    <linearGradient id="linearGradient908" y2="1271.9" gradientUnits="userSpaceOnUse" x2="1581.1" gradientTransform="matrix(.78728 .14192 -.14192 .78728 -905.67 -1042.9)" y1="1271.9" x1="1546.8">
      <stop id="stop910" style="stop-color:#a48058" offset="0"/>
      <stop id="stop912" style="stop-color:#6c4d2c" offset=".56080"/>
      <stop id="stop914" style="stop-color:#45290d" offset="1"/>
    </linearGradient>
    <radialGradient id="radialGradient948" gradientUnits="userSpaceOnUse" cy="129.15" cx="90.35" gradientTransform="matrix(.8 0 0 .49776 .0073451 104.19)" r="209.54">
      <stop id="stop950" style="stop-color:#e1d6cc" offset="0"/>
      <stop id="stop952" style="stop-color:#d7cec5" offset=".4745"/>
      <stop id="stop956" style="stop-color:#bdb8b2" offset=".7529"/>
      <stop id="stop958" style="stop-color:#a0a09e" offset="1"/>
    </radialGradient>
    <radialGradient id="radialGradient972" gradientUnits="userSpaceOnUse" cy="155.6" cx="119.5" gradientTransform="matrix(.8 0 0 .42856 .0073451 80.64)" r="216.11">
      <stop id="stop974" style="stop-color:#d7c8ba" offset="0"/>
      <stop id="stop976" style="stop-color:#cdc1b5" offset=".58820"/>
      <stop id="stop980" style="stop-color:#b3aea8" offset=".84710"/>
      <stop id="stop982" style="stop-color:#a0a09e" offset="1"/>
    </radialGradient>
    <clipPath id="clipPath990">
      <path id="path992" d="m46 223.81h44v18h-44v-18z" inkscape:connector-curvature="0"/>
    </clipPath>
    <mask id="mask994">
      <g id="g996">
        <g id="g998" clip-path="url(#clipPath990)">
          <path id="path1000" style="fill:#000000;fill-opacity:.10940" d="m46 223.81h44v18h-44v-18z" inkscape:connector-curvature="0"/>
        </g>
      </g>
    </mask>
    <clipPath id="clipPath1006">
      <path id="path1008" d="m46 223.81h44v18h-44v-18z" inkscape:connector-curvature="0"/>
    </clipPath>
    <clipPath id="clipPath1010">
      <path id="path1012" d="m46 224h44v18h-44v-18z" inkscape:connector-curvature="0"/>
    </clipPath>
    <clipPath id="clipPath1034">
      <path id="path1036" d="m131 235.81h34v15h-34v-15z" inkscape:connector-curvature="0"/>
    </clipPath>
    <mask id="mask1038">
      <g id="g1040">
        <g id="g1042" clip-path="url(#clipPath1034)">
          <path id="path1044" style="fill:#000000;fill-opacity:.10940" d="m131 235.81h34v15h-34v-15z" inkscape:connector-curvature="0"/>
        </g>
      </g>
    </mask>
    <clipPath id="clipPath1050">
      <path id="path1052" d="m131 235.81h34v15h-34v-15z" inkscape:connector-curvature="0"/>
    </clipPath>
    <clipPath id="clipPath1054">
      <path id="path1056" d="m131 236h34v15h-34v-15z" inkscape:connector-curvature="0"/>
    </clipPath>
    <clipPath id="clipPath1078">
      <path id="path1080" d="m113 226.81h12v7h-12v-7z" inkscape:connector-curvature="0"/>
    </clipPath>
    <mask id="mask1082">
      <g id="g1084">
        <g id="g1086" clip-path="url(#clipPath1078)">
          <path id="path1088" style="fill:#000000;fill-opacity:.10940" d="m113 226.81h12v7h-12v-7z" inkscape:connector-curvature="0"/>
        </g>
      </g>
    </mask>
    <clipPath id="clipPath1094">
      <path id="path1096" d="m113 226.81h12v7h-12v-7z" inkscape:connector-curvature="0"/>
    </clipPath>
    <clipPath id="clipPath1098">
      <path id="path1100" d="m113 227h12v7h-12v-7z" inkscape:connector-curvature="0"/>
    </clipPath>
    <clipPath id="clipPath1122">
      <path id="path1124" d="m22 241.81h19v9h-19v-9z" inkscape:connector-curvature="0"/>
    </clipPath>
    <mask id="mask1126">
      <g id="g1128">
        <g id="g1130" clip-path="url(#clipPath1122)">
          <path id="path1132" style="fill:#000000;fill-opacity:.10940" d="m22 241.81h19v9h-19v-9z" inkscape:connector-curvature="0"/>
        </g>
      </g>
    </mask>
    <clipPath id="clipPath1138">
      <path id="path1140" d="m22 241.81h19v9h-19v-9z" inkscape:connector-curvature="0"/>
    </clipPath>
    <clipPath id="clipPath1142">
      <path id="path1144" d="m22 242h19v9h-19v-9z" inkscape:connector-curvature="0"/>
    </clipPath>
    <clipPath id="clipPath1166">
      <path id="path1168" d="m106 251.81h28v13h-28v-13z" inkscape:connector-curvature="0"/>
    </clipPath>
    <mask id="mask1170">
      <g id="g1172">
        <g id="g1174" clip-path="url(#clipPath1166)">
          <path id="path1176" style="fill:#000000;fill-opacity:.10940" d="m106 251.81h28v13h-28v-13z" inkscape:connector-curvature="0"/>
        </g>
      </g>
    </mask>
    <clipPath id="clipPath1182">
      <path id="path1184" d="m106 251.81h28v13h-28v-13z" inkscape:connector-curvature="0"/>
    </clipPath>
    <clipPath id="clipPath1186">
      <path id="path1188" d="m106 252h28v13h-28v-13z" inkscape:connector-curvature="0"/>
    </clipPath>
  </defs>
  <g id="g10" transform="matrix(1.25 0 0 -1.25 0 339.76)">
    <g id="g12">
      <g id="g14">
        <g id="g16">
          <g id="g22">
            <path id="path40" style="fill-rule:evenodd;fill:url(#linearGradient24)" d="m151.69 143.64c5.093-2.907 8.917-5.625 11.48-8.16 4.508-4.481 9.652-12.305 15.441-23.481 5.813-11.226 10.879-19 15.2-23.32 1.066-1.067 2.734-2.199 5-3.399 1.281-0.691 3.293-1.734 6.039-3.121 4.906-2.636 7.574-5.57 8-8.797 0.187-1.363-0.239-3.109-1.282-5.242-1.519-3.121-2.304-4.773-2.359-4.961-0.691-2.183-1.32-4.918-1.879-8.199-0.293-1.867-0.734-4.641-1.32-8.32l-7.961-44.879-1.199-1.762c-1.282 6.774-2.227 11.176-2.84 13.203-1.465 4.797-3.906 9.957-7.32 15.481-2.774 4.48-5.399 9.558-7.879 15.238-1.493 3.414-3.614 8.746-6.36 16-1.226 3.281-3.519 7.121-6.883 11.52-4.023 5.226-6.597 8.882-7.718 10.96-1.84 3.387-3.399 8.438-4.68 15.161-1.387 7.226-2.719 12.277-4 15.16-3.039 6.801-9.066 14.465-18.082 23-6.316 5.972-9.879 9.371-10.68 10.199-3.945 3.945-7.09 7.68-9.437 11.199-3.52 5.176-7.094 12.426-10.723 21.762-3.277 8.398-5.746 16.105-7.398 23.117-0.481 2.109-0.536 3.348-0.16 3.723 0.292 0.265 1.093 0.117 2.398-0.442 4.137-1.812 7.574-2.226 10.32-1.238 2.426-2.855 4.36-6.906 5.801-12.16 1.734-6.293 3.293-10.68 4.68-13.16 5.496-9.84 13.48-19.039 23.961-27.602 2.05-1.679 6-4.172 11.84-7.48z" inkscape:connector-curvature="0"/>
          </g>
        </g>
      </g>
      <g id="g42">
        <g id="g58" mask="url(#mask50)">
          <g id="g82">
            <g id="g84" clip-path="url(#clipPath62)">
              <g id="g86" transform="translate(0 -.18838)">
                <g id="g90">
                  <g id="g92" clip-path="url(#clipPath66)">
                    <g id="g94">
                      <g id="g96">
                        <g id="g98">
                          <g id="g100">
                            <path id="path102" style="fill-rule:evenodd;fill:url(#linearGradient74)" d="m115.89 178.91c5.492-9.84 13.48-19.039 23.961-27.597 2.05-1.68 6-4.176 11.84-7.481 5.093-2.906 8.917-5.625 11.48-8.16 4.504-4.48 9.652-12.305 15.437-23.48 5.817-11.227 10.883-19 15.204-23.321 1.066-1.066 2.73-2.199 5-3.398 1.277-0.696 3.293-1.735 6.039-3.121 4.906-2.641 7.574-5.575 8-8.801 0.183-1.359-0.243-3.106-1.282-5.238-1.519-3.121-2.304-4.774-2.359-4.961-0.695-2.188-1.32-4.918-1.879-8.2-0.297-1.867-0.734-4.64-1.32-8.32l-7.96-44.881-1.2-1.761c-0.106 0.507-0.575 2.624-1.403 6.359-0.586 2.586-0.984 4.773-1.199 6.562-0.105 0.774-0.226 1.985-0.359 3.637-0.133 1.602-0.254 2.789-0.36 3.563-0.105 0.718-0.429 1.972-0.961 3.757-0.507 1.602-0.773 2.801-0.8 3.602-0.024 0.852 0.254 1.973 0.839 3.359 0.696 1.629 1.094 2.746 1.204 3.36 0.746 4.242 0.933 7.16 0.558 8.761-0.187 0.829-0.652 1.653-1.402 2.481-0.957 1.066-1.559 1.824-1.797 2.277-0.32 0.59-0.574 1.457-0.762 2.602-0.265 1.574-0.426 2.465-0.48 2.68-1.36 5.199-2.465 9.066-3.321 11.601-0.425 1.199-1.332 2.746-2.718 4.641-1.52 2.023-2.508 3.547-2.961 4.558-1.735 3.465-3.184 6.453-4.36 8.961-2.238 4.746-3.347 7.731-3.32 8.957 5.094-8.613 8.801-13.972 11.121-16.078 0.961-0.879 2.453-2.668 4.481-5.359 1.945-2.266 3.8-3.442 5.558-3.52-0.664 0.586-1.359 1.465-2.078 2.641-0.75 1.117-1.933 3.156-3.562 6.117-1.387 2.535-2.614 4.535-3.68 6-3.332 4.613-6.027 9.574-8.078 14.883-1.895 4.879-4.653 10.199-8.281 15.957-4.375 6.562-7.696 11.601-9.961 15.121-2.293 3.574-6.133 7.227-11.52 10.961-6.266 3.945-10.785 6.918-13.558 8.918-4.348 3.176-8.442 7.265-12.282 12.281-3.707 4.828-6.652 9.828-8.84 15-1.492 3.465-3.441 8.652-5.839 15.559-0.375 1.043-1.575 3.375-3.602 7-1.652 2.961-2.57 5.336-2.758 7.121 2.879 0.027 5.078-0.813 6.598-2.52 1.121-1.281 2.242-3.601 3.363-6.961 0.613-1.812 1.414-4.547 2.399-8.199 0.961-3.226 2.015-5.867 3.16-7.922z" inkscape:connector-curvature="0"/>
                          </g>
                        </g>
                      </g>
                    </g>
                  </g>
                </g>
              </g>
            </g>
          </g>
        </g>
      </g>
      <g id="g104">
        <g id="g120" mask="url(#mask112)">
          <g id="g144">
            <g id="g146" clip-path="url(#clipPath124)">
              <g id="g148" transform="translate(0 -.18838)">
                <g id="g152">
                  <g id="g154" clip-path="url(#clipPath128)">
                    <g id="g156">
                      <g id="g158">
                        <g id="g160">
                          <g id="g162">
                            <path id="path164" style="fill-rule:evenodd;fill:url(#linearGradient136)" d="m190.69 90.191c2.027-2.132 2.906-4.121 2.64-5.961-0.269-1.785-1.387-1.691-3.363 0.282-1.973 2-2.863 3.933-2.68 5.8 0.242 2.079 1.375 2.04 3.403-0.121z" inkscape:connector-curvature="0"/>
                          </g>
                        </g>
                      </g>
                    </g>
                  </g>
                </g>
              </g>
            </g>
          </g>
        </g>
      </g>
      <g id="g166">
        <g id="g182" mask="url(#mask174)">
          <g id="g206">
            <g id="g208" clip-path="url(#clipPath186)">
              <g id="g210" transform="translate(0 -.18838)">
                <g id="g214">
                  <g id="g216" clip-path="url(#clipPath190)">
                    <g id="g218">
                      <g id="g220">
                        <g id="g222">
                          <g id="g224">
                            <path id="path226" style="fill-rule:evenodd;fill:url(#linearGradient198)" d="m159.37 137.67c1.465-1.012 2.305-1.984 2.52-2.918s-0.399-0.922-1.84 0.039c-1.414 0.934-2.238 1.879-2.481 2.84-0.265 1.066 0.332 1.078 1.801 0.039z" inkscape:connector-curvature="0"/>
                          </g>
                        </g>
                      </g>
                    </g>
                  </g>
                </g>
              </g>
            </g>
          </g>
        </g>
      </g>
      <g id="g228">
        <g id="g244" mask="url(#mask236)">
          <g id="g268">
            <g id="g270" clip-path="url(#clipPath248)">
              <g id="g272" transform="translate(0 -.18838)">
                <g id="g276">
                  <g id="g278" clip-path="url(#clipPath252)">
                    <g id="g280">
                      <g id="g282">
                        <g id="g284">
                          <g id="g286">
                            <path id="path288" style="fill-rule:evenodd;fill:url(#linearGradient260)" d="m193.37 79.594c0.934-0.082 1.985-0.75 3.16-2 2.879-3.043 4.028-5.934 3.438-8.684-0.266-1.277-0.918-1.851-1.957-1.719-0.934 0.106-1.961 0.719-3.082 1.84-2.824 2.801-4 5.602-3.52 8.403 0.266 1.519 0.922 2.238 1.961 2.16z" inkscape:connector-curvature="0"/>
                          </g>
                        </g>
                      </g>
                    </g>
                  </g>
                </g>
              </g>
            </g>
          </g>
        </g>
      </g>
      <g id="g290">
        <g id="g306" mask="url(#mask298)">
          <g id="g330">
            <g id="g332" clip-path="url(#clipPath310)">
              <g id="g334" transform="translate(0 -.18838)">
                <g id="g338">
                  <g id="g340" clip-path="url(#clipPath314)">
                    <g id="g342">
                      <g id="g344">
                        <g id="g346">
                          <g id="g348">
                            <path id="path350" style="fill-rule:evenodd;fill:url(#linearGradient322)" d="m163.37 127.75c-3.867-0.91-7.121-2.867-9.762-5.883-1.304-1.519-2.238-2.945-2.796-4.277 1.089 4.824 3.519 7.972 7.277 9.437 1.867 0.723 3.629 0.961 5.281 0.723z" inkscape:connector-curvature="0"/>
                          </g>
                        </g>
                      </g>
                    </g>
                  </g>
                </g>
              </g>
            </g>
          </g>
        </g>
      </g>
      <g id="g352">
        <g id="g368" mask="url(#mask360)">
          <g id="g392">
            <g id="g394" clip-path="url(#clipPath372)">
              <g id="g396" transform="translate(0 -.18838)">
                <g id="g400">
                  <g id="g402" clip-path="url(#clipPath376)">
                    <g id="g404">
                      <g id="g406">
                        <g id="g408">
                          <g id="g410">
                            <path id="path412" style="fill-rule:evenodd;fill:url(#linearGradient384)" d="m169.81 121.55c-4.961-0.559-9.442-3.414-13.442-8.559-2-2.586-3.508-5.105-4.519-7.558l-0.442 2.238c2.535 5.894 6.36 9.973 11.481 12.238 2.558 1.121 4.867 1.668 6.922 1.641z" inkscape:connector-curvature="0"/>
                          </g>
                        </g>
                      </g>
                    </g>
                  </g>
                </g>
              </g>
            </g>
          </g>
        </g>
      </g>
      <g id="g414">
        <g id="g430" mask="url(#mask422)">
          <g id="g454">
            <g id="g456" clip-path="url(#clipPath434)">
              <g id="g458" transform="translate(0 -.18838)">
                <g id="g462">
                  <g id="g464" clip-path="url(#clipPath438)">
                    <g id="g466">
                      <g id="g468">
                        <g id="g470">
                          <g id="g472">
                            <path id="path474" style="fill-rule:evenodd;fill:url(#linearGradient446)" d="m144.25 146.91c-3.172-0.851-6.105-2.305-8.801-4.359-1.332-1.039-2.359-1.985-3.078-2.84 1.574 2.988 4.028 5.082 7.36 6.281 1.679 0.613 3.187 0.918 4.519 0.918z" inkscape:connector-curvature="0"/>
                          </g>
                        </g>
                      </g>
                    </g>
                  </g>
                </g>
              </g>
            </g>
          </g>
        </g>
      </g>
      <g id="g476">
        <g id="g492" mask="url(#mask484)">
          <g id="g516">
            <g id="g518" clip-path="url(#clipPath496)">
              <g id="g520" transform="translate(0 -.18838)">
                <g id="g524">
                  <g id="g526" clip-path="url(#clipPath500)">
                    <g id="g528">
                      <g id="g530">
                        <g id="g532">
                          <g id="g534">
                            <path id="path536" style="fill-rule:evenodd;fill:url(#linearGradient508)" d="m113.09 155.19c0.426 1.414 1.16 2.774 2.199 4.082 2.082 2.614 4.707 3.637 7.883 3.079-0.856 0-1.922-0.293-3.203-0.879-2.531-1.2-4.824-3.293-6.879-6.282z" inkscape:connector-curvature="0"/>
                          </g>
                        </g>
                      </g>
                    </g>
                  </g>
                </g>
              </g>
            </g>
          </g>
        </g>
      </g>
      <g id="g538">
        <g id="g554" mask="url(#mask546)">
          <g id="g578">
            <g id="g580" clip-path="url(#clipPath558)">
              <g id="g582" transform="translate(0 -.18838)">
                <g id="g586">
                  <g id="g588" clip-path="url(#clipPath562)">
                    <g id="g590">
                      <g id="g592">
                        <g id="g594">
                          <g id="g596">
                            <path id="path598" style="fill-rule:evenodd;fill:url(#linearGradient570)" d="m110.41 160.11c0.188 0.907 0.614 1.852 1.282 2.84 1.359 1.973 3.253 3.199 5.679 3.68-0.719-0.242-1.547-0.68-2.48-1.321-1.867-1.308-3.36-3.039-4.481-5.199z" inkscape:connector-curvature="0"/>
                          </g>
                        </g>
                      </g>
                    </g>
                  </g>
                </g>
              </g>
            </g>
          </g>
        </g>
      </g>
      <g id="g600">
        <g id="g616" mask="url(#mask608)">
          <g id="g640">
            <g id="g642" clip-path="url(#clipPath620)">
              <g id="g644" transform="translate(0 -.18838)">
                <g id="g648">
                  <g id="g650" clip-path="url(#clipPath624)">
                    <g id="g652">
                      <g id="g654">
                        <g id="g656">
                          <g id="g658">
                            <path id="path660" style="fill-rule:evenodd;fill:url(#linearGradient632)" d="m100.77 180.95c0.64 0.824 1.562 1.598 2.761 2.32 2.371 1.438 4.961 1.934 7.758 1.481-0.851-0.027-1.933-0.215-3.238-0.563-2.613-0.664-5.039-1.746-7.281-3.238z" inkscape:connector-curvature="0"/>
                          </g>
                        </g>
                      </g>
                    </g>
                  </g>
                </g>
              </g>
            </g>
          </g>
        </g>
      </g>
      <g id="g662">
        <g id="g678" mask="url(#mask670)">
          <g id="g702">
            <g id="g704" clip-path="url(#clipPath682)">
              <g id="g706" transform="translate(0 -.18838)">
                <g id="g710">
                  <g id="g712" clip-path="url(#clipPath686)">
                    <g id="g714">
                      <g id="g716">
                        <g id="g718">
                          <g id="g720">
                            <path id="path722" style="fill-rule:evenodd;fill:url(#linearGradient694)" d="m169.05 67.992c0.961 2.238 2.414 4.535 4.359 6.879 3.946 4.668 8.469 7.254 13.559 7.762-2.133-0.906-4.371-2.387-6.719-4.442-4.664-4.132-7.504-9.121-8.519-14.961l-2.68 4.762z" inkscape:connector-curvature="0"/>
                          </g>
                        </g>
                      </g>
                    </g>
                  </g>
                </g>
              </g>
            </g>
          </g>
        </g>
      </g>
      <g id="g724">
        <g id="g740" mask="url(#mask732)">
          <g id="g764">
            <g id="g766" clip-path="url(#clipPath744)">
              <g id="g768" transform="translate(0 -.18838)">
                <g id="g772">
                  <g id="g774" clip-path="url(#clipPath748)">
                    <g id="g776">
                      <g id="g778">
                        <g id="g780">
                          <g id="g782">
                            <path id="path784" style="fill-rule:evenodd;fill:url(#linearGradient756)" d="m95.246 198.87c0.348-1.199 1.082-3.265 2.199-6.199 2.243-5.867 5.297-13.16 9.16-21.879 3.735-8.453 11.293-17.227 22.68-26.32 1.84-1.465 6.149-4.719 12.922-9.762 4.641-3.437 7.813-6.051 9.52-7.84 3.519-3.625 5.839-9.597 6.961-17.918 0.292-2.215 0.664-5.453 1.121-9.719 0.425-3.55 1.011-6.281 1.757-8.203 0.907-2.371 3.215-6.679 6.922-12.918 3.145-5.308 5.227-9.972 6.239-14 1.121-4.48 3.492-10.851 7.121-19.121 1.812-4.133 3.519-7.812 5.117-11.039-0.879 1.281-1.918 2.973-3.117 5.078-2.403 4.188-4.348 8.27-5.84 12.243-1.895 5.011-3.32 8.503-4.281 10.48-1.149 2.344-2.801 5.023-4.961 8.039-4.024 5.602-6.371 8.934-7.039 10-2.668 4.293-4.707 8.824-6.122 13.602-1.117 3.812-2.027 8.476-2.718 14-0.614 4.879-1.305 8.277-2.078 10.199-1.016 2.586-4.028 6.371-9.043 11.359-2.051 2.078-6.106 5.867-12.161 11.36-4.265 3.546-7.546 6.414-9.839 8.601-3.946 3.813-7.746 8.613-11.399 14.399-3.601 5.734-6.867 13.375-9.801 22.921-1.464 4.797-2.574 9.012-3.32 12.637z" inkscape:connector-curvature="0"/>
                          </g>
                        </g>
                      </g>
                    </g>
                  </g>
                </g>
              </g>
            </g>
          </g>
        </g>
      </g>
      <g id="g786">
        <g id="g788">
          <g id="g794">
            <path id="path812" style="fill-rule:evenodd;fill:url(#linearGradient796)" d="m132.25 209.8c-0.641 1.812-1.348 3.441-2.117 4.879l-0.961 1.601 7.602 1.399 3.316-14.278c2.32-10.695 3.762-18.933 4.32-24.722 0.215-2.16 0.52-5.426 0.922-9.797 0.344-3.816 0.598-7.094 0.758-9.844 0.348-5.625 1.519-10.73 3.519-15.316-0.613-1.496-1.933-2.016-3.957-1.563-1.816 0.426-3.976 1.547-6.48 3.36-3.309 2.375-5.707 4.695-7.203 6.961-0.852 1.336-1.637 3.187-2.36 5.558-0.183 0.641 0 1.551 0.563 2.723 1.117 2.344 1.812 3.879 2.078 4.597 2.215 5.895 3.281 14.067 3.199 24.524-0.054 7.465-1.117 14.105-3.199 19.918z" inkscape:connector-curvature="0"/>
          </g>
        </g>
      </g>
      <g id="g814">
        <g id="g830" mask="url(#mask822)">
          <g id="g854">
            <g id="g856" clip-path="url(#clipPath834)">
              <g id="g858" transform="translate(0 -.18838)">
                <g id="g862">
                  <g id="g864" clip-path="url(#clipPath838)">
                    <g id="g866">
                      <g id="g868">
                        <g id="g870">
                          <g id="g872">
                            <path id="path874" style="fill-rule:evenodd;fill:url(#linearGradient846)" d="m141.05 198.99 1.398-7.16c0.934-5.066 1.586-9.387 1.961-12.961 0.215-2.16 0.52-5.426 0.922-9.797 0.348-3.816 0.598-7.093 0.758-9.84 0.348-5.628 1.519-10.734 3.519-15.32-0.613-1.496-1.933-2.015-3.957-1.562-1.816 0.425-3.976 1.547-6.48 3.359-2.32 1.684-3.934 2.934-4.84 3.762-2.055 1.922-3.066 3.601-3.043 5.039 0.906-0.746 2.387-2.094 4.442-4.039 1.949-1.547 3.734-2.227 5.359-2.039 0.215 0.531 0.105 1.117-0.32 1.758-0.559 0.773-0.852 1.32-0.879 1.64-0.028 0.402 0.066 1.094 0.281 2.082 0.238 0.957 0.32 1.703 0.238 2.238-0.426 3.282-0.652 5.028-0.679 5.243-0.133 2.078 0.082 3.797 0.64 5.156 0.133-0.317 0.321-0.973 0.559-1.957 0.187-0.828 0.402-1.453 0.64-1.883 0.586 1.016 0.907 2.656 0.961 4.922-0.027 2.559-0.054 4.293-0.082 5.199-0.027 0.988-0.16 2.32-0.398 4-0.266 1.867-0.426 3.188-0.481 3.961-0.027 0.481-0.16 1.719-0.398 3.719-0.188 1.547-0.27 2.801-0.242 3.762-0.371-1.04-0.614-2.442-0.719-4.2-0.055-1.015-0.105-2.496-0.16-4.441-0.32 0.508-0.52 1.215-0.602 2.121v2.277c0.055 3.707 0.082 6.508 0.082 8.403-0.027 3.25-0.215 6.039-0.562 8.359-0.613 2.852-1.039 5-1.277 6.441-0.028 0.161-0.083 1.266-0.161 3.317 0.746-0.477 1.504-2.317 2.282-5.52 0.398-1.679 0.812-3.691 1.238-6.039z" inkscape:connector-curvature="0"/>
                          </g>
                        </g>
                      </g>
                    </g>
                  </g>
                </g>
              </g>
            </g>
          </g>
        </g>
      </g>
      <g id="g876">
        <g id="g892" mask="url(#mask884)">
          <g id="g916">
            <g id="g918" clip-path="url(#clipPath896)">
              <g id="g920" transform="translate(0 -.18838)">
                <g id="g924">
                  <g id="g926" clip-path="url(#clipPath900)">
                    <g id="g928">
                      <g id="g930">
                        <g id="g932">
                          <g id="g934">
                            <path id="path936" style="fill-rule:evenodd;fill:url(#linearGradient908)" d="m134.85 202.19c0.398-1.333 0.812-3.094 1.238-5.278 0.879-4.43 1.414-8.855 1.602-13.281 0.187-4.746-0.04-8.906-0.68-12.481-0.403-2.187-1.227-5.187-2.481-9-1.281-4-1.879-6.546-1.8-7.64-0.879 0.695-1.52 1.64-1.918 2.84-0.27 0.8-0.121 2.082 0.437 3.84 0.402 1.226 1.149 3.082 2.242 5.562 0.797 1.812 1.438 4.426 1.918 7.84 0.321 2.32 0.625 5.531 0.922 9.64 0.184 2.879 0.078 6.305-0.32 10.278-0.32 3.226-0.707 5.789-1.16 7.68z" inkscape:connector-curvature="0"/>
                          </g>
                        </g>
                      </g>
                    </g>
                  </g>
                </g>
              </g>
            </g>
          </g>
        </g>
      </g>
      <g id="g938">
        <g id="g940">
          <g id="g946">
            <path id="path960" style="fill-rule:evenodd;fill:url(#radialGradient948)" d="m215.01 215.12c-0.16-2.375-0.949-4.922-2.36-7.64-0.082-0.133-0.8-1.161-2.16-3.079-1.05-1.457-1.582-2.472-1.601-3.043-0.004 0.528-0.059 1.274-0.16 2.243-0.106 0.984-0.172 1.757-0.2 2.32-0.851-1.867-1.414-4.508-1.679-7.922-0.102-1.473-0.188-3.433-0.262-5.879-0.059 1.598-0.293 3.438-0.699 5.52-0.852 3.679-1.438 6.32-1.758 7.922-0.27-4.188-0.441-9.188-0.52-15-0.054-3.364-0.109-8.387-0.16-15.082-0.668 7.945-1.254 13.839-1.761 17.679-0.852 6.696-2.415 12.348-4.68 16.961-0.078-0.426-0.172-1.359-0.281-2.801-0.106-1.171-0.254-2.105-0.438-2.8-1.309 3.203-2.453 5.562-3.441 7.082-0.188-0.879-0.575-1.762-1.16-2.641-0.559-0.828-1.2-1.519-1.918-2.078-0.508 1.039-0.801 2.184-0.883 3.437-1.758-2.691-3.239-4.625-4.438-5.8-0.027 1.336 0.266 2.668 0.879 4-3.094-3.571-5.469-6.918-7.121-10.039-0.238 3.707-0.078 6.878 0.481 9.519-2.161-2.344-3.254-6.277-3.282-11.801-0.023-3.093 0.188-7.382 0.641-12.879-0.985 2.266-1.731 4.934-2.238 8-0.321 2.133-0.586 4.907-0.801 8.321-0.293-0.426-0.668-1.239-1.121-2.442-0.426-1.117-0.813-1.879-1.157-2.277-0.082 1.039-0.109 2.559-0.082 4.559 0.028 2.082 0.012 3.601-0.039 4.558-0.586-0.879-1.242-2.41-1.961-4.597-0.027 0.453-0.175 1.519-0.441 3.199-0.184 1.281-0.266 2.347-0.238 3.199-0.403-1.414-1.348-3.906-2.84-7.481-1.309-3.066-2.149-5.585-2.52-7.558-0.242-1.359-0.347-3.707-0.32-7.039 0.027-3.039-0.172-5.375-0.601-7-0.852 2.773-1.293 6.906-1.321 12.398-0.023 6-0.277 10.172-0.758 12.52-0.851-2.321-1.359-5.305-1.519-8.957-0.106-2.028-0.227-5.082-0.36-9.16-0.722 2.613-1.175 6.171-1.359 10.679-0.055 1.145-0.094 4.84-0.121 11.078-0.055-0.16-0.52-1.824-1.398-5-0.563-2.027-1.254-3.625-2.082-4.8-0.586 3.441-1.399 6.707-2.442 9.8-0.504-0.664-0.933-1.679-1.277-3.039-0.293-1.175-0.481-2.332-0.563-3.48-0.215 0.558-0.531 1.625-0.957 3.199-0.429 1.496-0.789 2.602-1.082 3.32-0.586-0.558-0.961-0.945-1.121-1.16-0.16 0.696-0.266 1.199-0.32 1.52-0.078 0.586-0.09 1.137-0.039 1.64-0.586-1.171-1.039-2.05-1.36-2.64-0.586-1.012-1.214-1.68-1.879-2-0.64 1.949-0.949 3.894-0.921 5.84-0.426-0.586-0.985-1.559-1.68-2.918-0.668-1.309-1.238-2.266-1.719-2.879-0.32 0.238-0.574 0.398-0.762 0.476-1.414-2.16-2.398-4.89-2.957-8.199-0.293-1.894-0.722-4.785-1.281-8.68-0.402 1.254-0.652 3.321-0.762 6.2-0.105 2.882-0.371 4.961-0.796 6.242-1.254-1.387-2.133-1.375-2.641 0.039-0.293 0.933-0.414 2.305-0.359 4.121-0.536-0.453-0.911-0.816-1.122-1.082-0.16 0.535-0.32 1.281-0.48 2.242-0.215 1.305-0.348 2.094-0.398 2.36-0.883-1.122-1.629-2.04-2.243-2.762-1.199-1.332-2.078-2.012-2.64-2.039-0.824-0.028-1.36 0.465-1.598 1.48-0.402 1.625-0.613 2.453-0.641 2.481l-2.839-9.2c-0.618 1.012-1.161 2.68-1.641 5-0.562 2.797-0.961 4.504-1.199 5.118-0.028-1.387-0.414-3.746-1.16-7.078-0.641-2.879-0.84-5.309-0.602-7.282 0.879-6.906 1.254-12.945 1.121-18.121-0.426 1.867-1.055 5.481-1.883 10.844-0.718 4.504-1.465 8.105-2.238 10.797-0.348-0.613-0.695-1.414-1.039-2.399-0.188-0.558-0.469-1.386-0.84-2.48-0.988 4.586-1.508 8.332-1.562 11.238-0.051-0.156-0.586-2.277-1.598-6.359-0.668-2.641-1.414-4.758-2.242-6.36-0.106 0.614-0.254 1.668-0.438 3.161-0.16 1.414-0.308 2.48-0.441 3.199-0.906-1.305-1.613-3.039-2.121-5.199-0.266-1.2-0.68-3.012-1.238-5.442-0.454 1.254-0.747 2.668-0.879 4.242-0.137 1.68-0.028 3.133 0.316 4.36-0.664-1.094-1.156-2.918-1.477-5.481-0.187-1.414-0.363-3.347-0.523-5.801-0.184-1.972 0.148-5.558 1-10.757 0.723-4.586 0.762-8.149 0.121-10.68-0.398 3.918-1.187 7.68-2.359 11.277-0.774 3.016-1.375 5.309-1.801 6.883-0.773 2.852-1.664 5-2.68 6.438-0.426-1.547-0.691-3.547-0.8-6-0.051-1.387-0.106-3.426-0.161-6.118-2.691 6.106-3.972 11.344-3.839 15.719-0.161-1.172-0.598-2.894-1.321-5.16-0.746-2.293-1.199-4.039-1.359-5.238-0.16-1.203-0.414-4.43-0.758-9.684-0.242-4.105-0.668-7.238-1.281-9.398-0.668 3.84-0.985 8.519-0.961 14.039 0.187 6.375 0.293 11.121 0.32 14.242-0.293-0.668-0.879-2.293-1.758-4.883-0.722-2.078-1.414-3.68-2.082-4.797 0 1.438 0.094 3.692 0.282 6.758 0.214 2.988 0.304 5.254 0.281 6.801-0.617-1.707-2.121-4.774-4.524-9.199-2-3.653-3.265-6.801-3.797-9.442-0.48 3.895-0.695 6.813-0.64 8.762-0.856-2.133-2.133-5.547-3.84-10.242-0.027 1.762-0.055 3.094-0.082 4-0.32-1.438-0.52-3.613-0.598-6.52-0.082-2.933-0.269-5.078-0.562-6.437-0.719 4.265-1.254 7.492-1.598 9.679-0.586 3.891-0.855 7.172-0.801 9.84-1.468-3.867-2.347-8.922-2.64-15.16-0.106-1.976-0.121-7.215-0.039-15.723-0.801 2.403-1.414 5.215-1.84 8.442-0.426 3.094-0.613 6-0.563 8.719-0.773-3.039-0.89-6.891-0.359-11.559 0.293-2.613 0.816-6.465 1.562-11.559-0.722 1.891-1.601 4.665-2.64 8.321-1.176 4.105-1.988 6.824-2.442 8.16-0.293 0.824-0.453 2.078-0.48 3.758 0 1.785-0.117 3.066-0.359 3.84-0.133 0.48-0.536 1.199-1.2 2.16-0.586 0.828-0.921 1.586-1 2.281-0.718-0.082-1.254-0.199-1.601-0.359-0.481-0.188-0.906-0.547-1.278-1.082-0.429 1.359-0.789 2.988-1.082 4.878-0.32 2.161-0.574 3.79-0.757 4.883-0.508-1.308-0.989-2.359-1.442-3.16-0.16 0.957-0.414 2.692-0.761 5.199-0.293 2.161-0.559 3.852-0.797 5.078-0.11-0.16-0.403-0.476-0.883-0.957-0.481-0.453-0.785-0.8-0.918-1.043-0.266 0.563-0.469 0.989-0.602 1.282-0.238 0.535-0.359 1.015-0.359 1.441-1.121-1.441-2.094-3.64-2.922-6.601-1.039-3.84-1.746-6.172-2.117-7-0.242 1.468-0.348 3.414-0.32 5.839 0.027 3.2 0.027 5.188 0 5.961-0.961-0.668-1.563-2.148-1.801-4.441-0.133-1.25-0.227-2.957-0.281-5.117-0.321-2.883-0.387-6.656-0.2-11.321 0.215-5.707 0.293-9.468 0.242-11.281 0 0.055-0.523 2.762-1.562 8.121-0.613 3.305-0.895 6.028-0.84 8.16l-0.359-1.082c-1.067 2.055-1.934 4.84-2.602 8.36-0.242 1.32-0.441 2.605-0.597 3.859 0.16-1.75 0.386-3.824 0.679-6.219 0.613-5.121 0.879-9 0.801-11.64-0.215 0.773-0.695 2.949-1.441 6.519-0.536 2.641-1.133 4.735-1.801 6.282-0.211 0.535-0.735 1.441-1.559 2.718-0.613 1.043-1.015 1.961-1.199 2.762-0.293 1.414-0.441 3.215-0.441 5.398 0.105 2.454 0.16 4.254 0.16 5.403-0.215-0.215-0.399-0.293-0.559-0.242-0.375-1.2-0.586-1.891-0.64-2.078-0.215-0.829-0.309-1.575-0.282-2.243-0.453 1.067-0.746 2.403-0.879 4-0.054 0.883-0.066 2.282-0.039 4.203-0.773-1.546-1.297-3.187-1.562-4.921-0.16-1.172-0.238-2.895-0.238-5.161 0-1.839 0.281-4.933 0.839-9.281 0.508-3.972 0.707-7.023 0.598-9.156-1.383 4.746-2.586 10.051-3.598 15.918-0.668 3.84-1.441 9.226-2.32 16.16-1.359-1.812-1.828-4.879-1.398-9.199 0.238-2.348 0.613-5.586 1.117-9.723-0.133 0.668-0.531 2.348-1.199 5.043-0.536 2.078-0.879 3.774-1.039 5.078-0.293 2.215-1.051 5.016-2.278 8.403-1.496 4.211-2.414 6.984-2.762 8.32-1.226 4.773-1.8 8.851-1.722 12.238 0.054 2.481 0.535 5.348 1.441 8.602 1.52 5.304 4.692 9.758 9.52 13.359 3.574 2.664 8.734 5.227 15.48 7.68 11.121 4.027 23.442 6.398 36.961 7.121 12.613 0.637 25.172-0.188 37.68-2.481 5.465-1.015 14.558-3.656 27.277-7.921 11.496-3.84 20.656-6.149 27.481-6.918 2.64-0.297 6.574-0.629 11.8-1 4.641-0.43 8.52-1.121 11.641-2.082 3.199-0.985 7.801-3 13.801-6.039 5.918-3.016 10.531-5.016 13.84-6 2.961-0.907 5.132-2.387 6.519-4.442 1.281-1.918 1.801-4.211 1.559-6.879z" inkscape:connector-curvature="0"/>
          </g>
        </g>
      </g>
      <g id="g962">
        <g id="g964">
          <g id="g970">
            <path id="path984" style="fill-rule:evenodd;fill:url(#radialGradient972)" d="m210.01 238.8c3.441-2.668 5.89-6.133 7.359-10.399 0.106-0.296 0.293-0.707 0.559-1.242 0.187-0.453 0.281-0.851 0.281-1.199 0.027-3.305-0.398-6.602-1.281-9.879-0.852-3.176-1.254-5.656-1.199-7.441-0.188 1.066-0.282 2.293-0.282 3.679 0.028 1.629 0.043 2.856 0.043 3.68-0.375-1.144-0.64-2.894-0.8-5.238-0.215-2.508-0.454-4.281-0.719-5.32 0.078 2.453 0.105 4.238 0.078 5.359-0.051 2.133-0.281 3.867-0.68 5.199-0.105-1.277-0.519-4.558-1.238-9.84-0.469-3.429-0.742-6.34-0.82-8.738 0.039 4 0.058 7.141 0.058 9.418 0.055 4.668 0.028 8.43-0.082 11.281-0.078-1.304-0.48-2.906-1.199-4.801-0.426-1.039-1.094-2.492-2-4.359-0.215 1.895-0.426 3.371-0.641 4.441-0.347 1.864-0.84 3.161-1.48 3.879-0.211-1.707-0.57-4.32-1.078-7.839-0.336-2.793-0.496-5.247-0.481-7.36-0.058 1.902-0.324 4.223-0.801 6.957-0.718 3.524-1.238 6.149-1.558 7.883v-7c-0.695 1.785-2.176 4.613-4.442 8.48-0.132-0.668-0.359-2.16-0.679-4.48-0.262-1.828-0.551-3.289-0.86-4.383-0.242 0.824-0.609 1.856-1.101 3.102-0.641 1.574-1.039 2.601-1.199 3.082-0.426-0.934-0.852-2.364-1.282-4.281-1.144 1.519-1.64 3.238-1.48 5.16-0.613-0.563-2.426-1.813-5.438-3.762-2.296-1.465-3.894-2.934-4.8-4.398 0.453 1.359 1.281 3.48 2.48 6.359-2.48-2.641-3.816-4.078-4-4.32-1.414-1.813-2.187-3.598-2.32-5.36v7.16c-1.52-3.039-2.547-6.492-3.082-10.359-0.465-3.547-0.426-6.828 0.121-9.84-0.59 2.879-0.977 6.332-1.16 10.36-0.106 5.253-0.239 9.199-0.399 11.839-0.293-0.398-0.949-1.414-1.961-3.039-0.851-1.359-1.558-2.32-2.121-2.883-0.133 0.508-0.226 1.403-0.277 2.68-0.082 1.149-0.227 2.028-0.442 2.641-1.359-1.254-2.386-2.172-3.082-2.758-1.199-1.016-2.386-1.629-3.558-1.84-0.082 0.238-0.16 0.625-0.238 1.16-0.082 0.633-0.067 0.981 0.039 1.039-1.789-0.91-3.161-2.613-4.121-5.121-0.715-1.855-1.122-3.843-1.219-5.961-0.004 1.555-0.293 3.582-0.86 6.082-0.617 2.813-0.937 4.953-0.961 6.418-0.023-1.136-0.238-4.238-0.64-9.297-0.207-2.488-0.145-4.703 0.18-6.64-0.274 1.133-0.575 2.453-0.899 3.961-0.668 3.094-1.226 5.398-1.68 6.918-0.375 1.254-1.226 2.386-2.562 3.398-1.332 1.016-2.145 2.016-2.438 3-1.359-1.25-2.359-2.051-3-2.398-0.082 0.16-0.336 0.519-0.761 1.082-0.293 0.371-0.453 0.785-0.481 1.238-0.851-0.719-1.613-1.586-2.277-2.602 0 0.215-0.067 0.575-0.203 1.083-0.133 0.453-0.184 0.839-0.16 1.16-0.344-0.453-1.172-1.348-2.481-2.68-1.09-1.094-1.84-2.055-2.238-2.883-0.481-1.012-0.852-2.437-1.121-4.277-0.293-2.188-0.559-3.641-0.797-4.36-0.27 0.481-0.402 1.665-0.402 3.559-0.028 1.602-0.399 2.652-1.118 3.16-0.64 0.426-1.496 0.281-2.562-0.441-0.985-0.692-1.895-0.598-2.719 0.281-0.558-0.426-1.801-1.012-3.719-1.762-1.386-0.558-2.429-1.425-3.121-2.597-1.441-2.375-2.508-5.375-3.199-9-0.613-3.227-0.852-6.426-0.719-9.602-0.215 1.094-0.668 2.949-1.359 5.563-0.613 2.343-1.043 4.199-1.281 5.558-0.082 2-0.176 3.653-0.282 4.961-0.214 2.426-0.718 3.918-1.519 4.481-1.625 1.117-2.574-0.043-2.84-3.481-0.133-1.816-0.121-4.133 0.039-6.961-0.746 1.012-1.305 2.785-1.68 5.321-0.375 2.531-0.894 4.238-1.558 5.121-1.094 1.437-1.856 1.277-2.281-0.481-0.133-0.586-0.293-2.16-0.481-4.723-0.215-3.011-0.387-7.531-0.519-13.558-0.188-5.387-0.68-9.867-1.481-13.442 0.133 1.629-0.039 3.708-0.519 6.243-0.586 3.359-0.922 5.414-1 6.16-0.079 1.012 0.105 3.426 0.558 7.238 0.375 3.176 0.297 5.481-0.238 6.922-0.348-0.32-0.641-0.602-0.879-0.84-0.48-0.48-0.707-0.773-0.68-0.883-0.215 0.774-0.468 1.989-0.761 3.641-0.293 1.656-0.547 2.883-0.762 3.68-0.078-0.293-0.453-0.879-1.117-1.758-0.375 0.613-0.668 1.492-0.883 2.64-0.266 1.438-0.453 2.321-0.559 2.637-2.535-2.531-4.347-4.73-5.441-6.597-0.719 0.773-1.039 1.707-0.957 2.8-0.32-0.453-0.735-1.293-1.242-2.519-0.504-1.203-0.934-2.043-1.278-2.524-0.722 1.629-0.867 3.176-0.441 4.641-1.442-2.184-2.387-4.852-2.84-8-0.246-1.738-0.379-4.316-0.402-7.738-0.032 1.308-0.219 3.035-0.559 5.179-0.531 3.52-0.84 5.692-0.918 6.52-0.297-0.774-0.523-1.774-0.68-3-0.773 2.055-1.336 3.519-1.683 4.398-0.426-0.316-1.172-1.066-2.238-2.238-0.852-0.988-1.602-1.602-2.239-1.84 0.024 0.293 0.012 0.746-0.043 1.36-1.84-1.68-3.199-2.985-4.078-3.918-1.441-1.524-2.574-3.043-3.402-4.563-0.266 1.309-0.492 2.309-0.68 3-0.293 1.149-0.68 2.106-1.16 2.883-0.426-0.348-1-1-1.719-1.961-0.718-0.934-1.304-1.563-1.758-1.883 0.024 0.188 0.024 0.481 0 0.883-0.027 0.426-0.043 0.734-0.043 0.918-0.746-1.117-1.851-3.359-3.32-6.719-1.465-3.254-2.625-5.508-3.48-6.762-0.504 1.227-0.731 2.79-0.68 4.68-0.719-2.133-0.84-5.051-0.359-8.758 0.586-4.347 0.789-7.265 0.601-8.761-0.801 1.363-1.48 3.441-2.039 6.242-0.508 3.172-0.906 5.414-1.203 6.719-0.719 3.015-1.25 5.281-1.598 6.8-0.64 2.692-1.093 4.973-1.359 6.84-0.723-1.707-1.066-3.988-1.043-6.84 0-1.625 0.055-4.105 0.16-7.441-1.625 5.281-2.426 10.187-2.398 14.723-0.16-0.137-0.453-0.309-0.879-0.524-0.453-0.211-0.762-0.398-0.922-0.558-0.481 0.507-0.895 1.308-1.238 2.402-0.536 1.598-0.84 2.492-0.922 2.68l-0.84-0.762c-0.746 2.586-1.066 5.519-0.961 8.801-1.305-0.856-2.305-2.668-3-5.442-0.371-1.519-0.824-3.64-1.359-6.359 0.027 1.121-0.028 3.375-0.161 6.762-0.078 2.824-0.066 5.093 0.043 6.796-1.363-2-2.175-3.238-2.441-3.718-0.879-1.524-1.344-2.871-1.402-4.039 0.054 1.789 0.039 3.39-0.039 4.8-0.266-0.32-1.028-0.789-2.278-1.402-0.215 0.613-0.336 1.16-0.363 1.641-0.293-1.199-0.746-2.946-1.359-5.239-0.481-2-0.813-3.773-1-5.32-0.586 1.227-0.961 2.945-1.118 5.16-0.054 0.641-0.093 2.438-0.121 5.399-1.199-7.199-1.586-12.692-1.16-16.481 0.133-1.121 0.613-3.812 1.438-8.078 0.523-2.719 0.824-5.047 0.902-6.98-0.094 0.886-0.34 1.972-0.742 3.257-0.774 2.188-1.293 3.774-1.559 4.762-0.347 1.492-0.64 3.414-0.879 5.762-0.347 3.25-0.562 5.172-0.64 5.758-0.453 4.027-0.801 7.054-1.039 9.082-0.453 3.652-1.043 6.636-1.762 8.957-1.359-1.117-2-3.918-1.918-8.399 0.051-2.398 0.199-5.535 0.437-9.398-0.531 1.223-0.906 2.785-1.117 4.68-0.347 2.984-0.535 4.586-0.562 4.796-1.121 5.575-1.692 8.469-1.719 8.68-0.801 3.336-1.812 6.094-3.039 8.281-0.055 0.082-0.496 0.762-1.32 2.039-0.508 0.829-0.84 1.563-1 2.204-0.11-1.524-0.321-3.75-0.641-6.68-0.16-2.59-0.027-4.844 0.398-6.762-1.972 4.399-2.957 9.149-2.957 14.238-0.535-2.957-0.8-6.144-0.8-9.558-3.789 9.68-1.082 19.226 8.117 28.641 6.59 6.746 15.535 12.691 26.84 17.839 15.949 7.254 32.988 10.758 51.121 10.52 10.105-0.133 19.679-1.414 28.722-3.84 3.04-0.801 11.133-3.305 24.278-7.519 9.894-3.149 18.094-5.282 24.601-6.403 9.282-1.625 20.012-4.637 32.2-9.039 5.386-1.918 9.48-3.984 12.281-6.199z" inkscape:connector-curvature="0"/>
          </g>
        </g>
      </g>
      <g id="g986">
        <g id="g1002" mask="url(#mask994)">
          <g id="g1014">
            <g id="g1016" clip-path="url(#clipPath1006)">
              <g id="g1018" transform="translate(0 -.18838)">
                <g id="g1022">
                  <g id="g1024" clip-path="url(#clipPath1010)">
                    <g id="g1026">
                      <path id="path1028" style="fill-rule:evenodd;fill:#969694" d="m89.047 232.91c0-2.426-2.067-4.492-6.199-6.199-4.133-1.734-9.133-2.598-15-2.598-5.84 0-10.828 0.864-14.961 2.598-4.16 1.707-6.239 3.773-6.239 6.199 0 2.43 2.079 4.508 6.239 6.242 4.133 1.707 9.121 2.559 14.961 2.559 5.867 0 10.867-0.852 15-2.559 4.132-1.734 6.199-3.812 6.199-6.242z" inkscape:connector-curvature="0"/>
                    </g>
                  </g>
                </g>
              </g>
            </g>
          </g>
        </g>
      </g>
      <g id="g1030">
        <g id="g1046" mask="url(#mask1038)">
          <g id="g1058">
            <g id="g1060" clip-path="url(#clipPath1050)">
              <g id="g1062" transform="translate(0 -.18838)">
                <g id="g1066">
                  <g id="g1068" clip-path="url(#clipPath1054)">
                    <g id="g1070">
                      <path id="path1072" style="fill-rule:evenodd;fill:#969694" d="m159.85 248.39c3.199-1.414 4.8-3.106 4.8-5.078 0-1.973-1.601-3.668-4.8-5.082-3.2-1.415-7.067-2.118-11.602-2.118-4.504 0-8.371 0.703-11.598 2.118-3.203 1.414-4.8 3.109-4.8 5.082 0 1.972 1.597 3.664 4.8 5.078 3.227 1.414 7.094 2.121 11.598 2.121 4.535 0 8.402-0.707 11.602-2.121z" inkscape:connector-curvature="0"/>
                    </g>
                  </g>
                </g>
              </g>
            </g>
          </g>
        </g>
      </g>
      <g id="g1074">
        <g id="g1090" mask="url(#mask1082)">
          <g id="g1102">
            <g id="g1104" clip-path="url(#clipPath1094)">
              <g id="g1106" transform="translate(0 -.18838)">
                <g id="g1110">
                  <g id="g1112" clip-path="url(#clipPath1098)">
                    <g id="g1114">
                      <path id="path1116" style="fill-rule:evenodd;fill:#969694" d="m124.25 230.51c0-0.879-0.547-1.641-1.641-2.281-1.093-0.614-2.414-0.918-3.957-0.918-1.546 0-2.867 0.304-3.96 0.918-1.094 0.64-1.641 1.402-1.641 2.281s0.547 1.625 1.641 2.238c1.093 0.641 2.414 0.961 3.96 0.961 1.543 0 2.864-0.32 3.957-0.961 1.094-0.613 1.641-1.359 1.641-2.238z" inkscape:connector-curvature="0"/>
                    </g>
                  </g>
                </g>
              </g>
            </g>
          </g>
        </g>
      </g>
      <g id="g1118">
        <g id="g1134" mask="url(#mask1126)">
          <g id="g1146">
            <g id="g1148" clip-path="url(#clipPath1138)">
              <g id="g1150" transform="translate(0 -.18838)">
                <g id="g1154">
                  <g id="g1156" clip-path="url(#clipPath1142)">
                    <g id="g1158">
                      <path id="path1160" style="fill-rule:evenodd;fill:#969694" d="m40.887 248.43c0.187-0.883-0.547-1.817-2.199-2.801-1.626-0.961-3.68-1.707-6.161-2.238-2.48-0.536-4.668-0.684-6.558-0.442-1.895 0.239-2.934 0.785-3.121 1.641-0.188 0.879 0.535 1.812 2.16 2.801 1.625 0.957 3.691 1.703 6.199 2.238 2.481 0.535 4.668 0.68 6.559 0.441 1.894-0.242 2.933-0.789 3.121-1.64z" inkscape:connector-curvature="0"/>
                    </g>
                  </g>
                </g>
              </g>
            </g>
          </g>
        </g>
      </g>
      <g id="g1162">
        <g id="g1178" mask="url(#mask1170)">
          <g id="g1190">
            <g id="g1192" clip-path="url(#clipPath1182)">
              <g id="g1194" transform="translate(0 -.18838)">
                <g id="g1198">
                  <g id="g1200" clip-path="url(#clipPath1186)">
                    <g id="g1202">
                      <path id="path1204" style="fill-rule:evenodd;fill:#969694" d="m133.33 255.83c-0.297-1.332-1.828-2.215-4.601-2.64-2.801-0.399-6.012-0.211-9.641 0.562-3.652 0.773-6.664 1.918-9.039 3.438-2.375 1.496-3.414 2.921-3.121 4.281 0.293 1.332 1.828 2.215 4.601 2.64 2.801 0.399 6.012 0.211 9.641-0.562 3.652-0.77 6.664-1.918 9.039-3.438 2.375-1.496 3.414-2.921 3.121-4.281z" inkscape:connector-curvature="0"/>
                    </g>
                  </g>
                </g>
              </g>
            </g>
          </g>
        </g>
      </g>
    </g>
  </g>
<metadata><rdf:RDF><cc:Work><dc:format>image/svg+xml</dc:format><dc:type rdf:resource="http://purl.org/dc/dcmitype/StillImage"/><cc:license rdf:resource="http://creativecommons.org/licenses/publicdomain/"/><dc:publisher><cc:Agent rdf:about="http://openclipart.org/"><dc:title>Openclipart</dc:title></cc:Agent></dc:publisher></cc:Work><cc:License rdf:about="http://creativecommons.org/licenses/publicdomain/"><cc:permits rdf:resource="http://creativecommons.org/ns#Reproduction"/><cc:permits rdf:resource="http://creativecommons.org/ns#Distribution"/><cc:permits rdf:resource="http://creativecommons.org/ns#DerivativeWorks"/></cc:License></rdf:RDF></metadata></svg>
