<?xml version="1.0" encoding="UTF-8" standalone="no"?>
<!-- Created with Inkscape (http://www.inkscape.org/) -->
<svg xmlns:inkscape="http://www.inkscape.org/namespaces/inkscape" xmlns:rdf="http://www.w3.org/1999/02/22-rdf-syntax-ns#" xmlns="http://www.w3.org/2000/svg" xmlns:xlink="http://www.w3.org/1999/xlink" xmlns:ns1="http://sozi.baierouge.fr" xmlns:cc="http://creativecommons.org/ns#" xmlns:sodipodi="http://sodipodi.sourceforge.net/DTD/sodipodi-0.dtd" xmlns:dc="http://purl.org/dc/elements/1.1/" id="svg2" xml:space="preserve" viewBox="0 0 51.275 81.134" version="1.1" inkscape:version="0.91 r13725">
  <defs id="defs6">
    <linearGradient id="linearGradient24" y2="-42.437" gradientUnits="userSpaceOnUse" x2=".22150" gradientTransform="matrix(-.8 .00616 .00616 .8 -.000067904 64.92)" y1="-42.437" x1="-54.68">
      <stop id="stop26" style="stop-color:#3d2940" offset="0"/>
      <stop id="stop28" style="stop-color:#211f21" offset=".3098"/>
      <stop id="stop30" style="stop-color:#3d2940" offset=".63530"/>
      <stop id="stop32" style="stop-color:#3a4066" offset="1"/>
    </linearGradient>
    <clipPath id="clipPath50">
      <path id="path52" d="m14 31.907h6v8h-6v-8z" inkscape:connector-curvature="0"/>
    </clipPath>
    <mask id="mask54">
      <g id="g56">
        <g id="g58" clip-path="url(#clipPath50)">
          <path id="path60" style="fill:#000000;fill-opacity:.28910" d="m14 31.907h6v8h-6v-8z" inkscape:connector-curvature="0"/>
        </g>
      </g>
    </mask>
    <clipPath id="clipPath66">
      <path id="path68" d="m14 31.907h6v8h-6v-8z" inkscape:connector-curvature="0"/>
    </clipPath>
    <clipPath id="clipPath70">
      <path id="path72" d="m14 32h6v8h-6v-8z" inkscape:connector-curvature="0"/>
    </clipPath>
    <radialGradient id="radialGradient78" gradientUnits="userSpaceOnUse" cy="-9.1499" cx="1.3999" gradientTransform="matrix(-.79392 -.09832 .13408 -1.083 18.259 22.841)" r="6.0203">
      <stop id="stop80" style="stop-color:#43485a" offset="0"/>
      <stop id="stop82" style="stop-color:#3d2940" offset=".4314"/>
      <stop id="stop84" style="stop-color:#2d212f" offset="0.6"/>
      <stop id="stop86" style="stop-color:#1d181d" offset=".83140"/>
      <stop id="stop88" style="stop-color:#171517" offset="1"/>
    </radialGradient>
    <radialGradient id="radialGradient122" gradientUnits="userSpaceOnUse" cy="39.9" cx="20.35" gradientTransform="matrix(-.79392 -.09872 -.13792 1.1091 37.938 -9.2456)" r="5.4544">
      <stop id="stop124" style="stop-color:#43485a" offset="0"/>
      <stop id="stop126" style="stop-color:#3d295e" offset=".4314"/>
      <stop id="stop128" style="stop-color:#33244c" offset=".52940"/>
      <stop id="stop130" style="stop-color:#241c2f" offset=".71760"/>
      <stop id="stop132" style="stop-color:#1a171d" offset=".88240"/>
      <stop id="stop134" style="stop-color:#171517" offset="1"/>
    </radialGradient>
    <clipPath id="clipPath142">
      <path id="path144" d="m21 36.907h5v5h-5v-5z" inkscape:connector-curvature="0"/>
    </clipPath>
    <mask id="mask146">
      <g id="g148">
        <g id="g150" clip-path="url(#clipPath142)">
          <path id="path152" style="fill:#000000;fill-opacity:.62890" d="m21 36.907h5v5h-5v-5z" inkscape:connector-curvature="0"/>
        </g>
      </g>
    </mask>
    <clipPath id="clipPath158">
      <path id="path160" d="m21 36.907h5v5h-5v-5z" inkscape:connector-curvature="0"/>
    </clipPath>
    <clipPath id="clipPath162">
      <path id="path164" d="m21 37h5v5h-5v-5z" inkscape:connector-curvature="0"/>
    </clipPath>
    <clipPath id="clipPath186">
      <path id="path188" d="m26 12.907h6v5h-6v-5z" inkscape:connector-curvature="0"/>
    </clipPath>
    <mask id="mask190">
      <g id="g192">
        <g id="g194" clip-path="url(#clipPath186)">
          <path id="path196" style="fill:#000000;fill-opacity:.62890" d="m26 12.907h6v5h-6v-5z" inkscape:connector-curvature="0"/>
        </g>
      </g>
    </mask>
    <clipPath id="clipPath202">
      <path id="path204" d="m26 12.907h6v5h-6v-5z" inkscape:connector-curvature="0"/>
    </clipPath>
    <clipPath id="clipPath206">
      <path id="path208" d="m26 13h6v5h-6v-5z" inkscape:connector-curvature="0"/>
    </clipPath>
    <clipPath id="clipPath230">
      <path id="path232" d="m30 35.907h5v5h-5v-5z" inkscape:connector-curvature="0"/>
    </clipPath>
    <mask id="mask234">
      <g id="g236">
        <g id="g238" clip-path="url(#clipPath230)">
          <path id="path240" style="fill:#000000;fill-opacity:.62890" d="m30 35.907h5v5h-5v-5z" inkscape:connector-curvature="0"/>
        </g>
      </g>
    </mask>
    <clipPath id="clipPath246">
      <path id="path248" d="m30 35.907h5v5h-5v-5z" inkscape:connector-curvature="0"/>
    </clipPath>
    <clipPath id="clipPath250">
      <path id="path252" d="m30 36h5v5h-5v-5z" inkscape:connector-curvature="0"/>
    </clipPath>
    <clipPath id="clipPath274">
      <path id="path276" d="m17 24.907h6v6h-6v-6z" inkscape:connector-curvature="0"/>
    </clipPath>
    <mask id="mask278">
      <g id="g280">
        <g id="g282" clip-path="url(#clipPath274)">
          <path id="path284" style="fill:#000000;fill-opacity:.62890" d="m17 24.907h6v6h-6v-6z" inkscape:connector-curvature="0"/>
        </g>
      </g>
    </mask>
    <clipPath id="clipPath290">
      <path id="path292" d="m17 24.907h6v6h-6v-6z" inkscape:connector-curvature="0"/>
    </clipPath>
    <clipPath id="clipPath294">
      <path id="path296" d="m17 25h6v6h-6v-6z" inkscape:connector-curvature="0"/>
    </clipPath>
    <clipPath id="clipPath318">
      <path id="path320" d="m24 23.907h4v4h-4v-4z" inkscape:connector-curvature="0"/>
    </clipPath>
    <mask id="mask322">
      <g id="g324">
        <g id="g326" clip-path="url(#clipPath318)">
          <path id="path328" style="fill:#000000;fill-opacity:.62890" d="m24 23.907h4v4h-4v-4z" inkscape:connector-curvature="0"/>
        </g>
      </g>
    </mask>
    <clipPath id="clipPath334">
      <path id="path336" d="m24 23.907h4v4h-4v-4z" inkscape:connector-curvature="0"/>
    </clipPath>
    <clipPath id="clipPath338">
      <path id="path340" d="m24 24h4v4h-4v-4z" inkscape:connector-curvature="0"/>
    </clipPath>
    <clipPath id="clipPath362">
      <path id="path364" d="m32 32.907h3v3h-3v-3z" inkscape:connector-curvature="0"/>
    </clipPath>
    <mask id="mask366">
      <g id="g368">
        <g id="g370" clip-path="url(#clipPath362)">
          <path id="path372" style="fill:#000000;fill-opacity:.62890" d="m32 32.907h3v3h-3v-3z" inkscape:connector-curvature="0"/>
        </g>
      </g>
    </mask>
    <clipPath id="clipPath378">
      <path id="path380" d="m32 32.907h3v3h-3v-3z" inkscape:connector-curvature="0"/>
    </clipPath>
    <clipPath id="clipPath382">
      <path id="path384" d="m32 33h3v3h-3v-3z" inkscape:connector-curvature="0"/>
    </clipPath>
    <clipPath id="clipPath406">
      <path id="path408" d="m31 16.907h3v3h-3v-3z" inkscape:connector-curvature="0"/>
    </clipPath>
    <mask id="mask410">
      <g id="g412">
        <g id="g414" clip-path="url(#clipPath406)">
          <path id="path416" style="fill:#000000;fill-opacity:.62890" d="m31 16.907h3v3h-3v-3z" inkscape:connector-curvature="0"/>
        </g>
      </g>
    </mask>
    <clipPath id="clipPath422">
      <path id="path424" d="m31 16.907h3v3h-3v-3z" inkscape:connector-curvature="0"/>
    </clipPath>
    <clipPath id="clipPath426">
      <path id="path428" d="m31 17h3v3h-3v-3z" inkscape:connector-curvature="0"/>
    </clipPath>
    <clipPath id="clipPath450">
      <path id="path452" d="m23 27.907h9v10h-9v-10z" inkscape:connector-curvature="0"/>
    </clipPath>
    <mask id="mask454">
      <g id="g456">
        <g id="g458" clip-path="url(#clipPath450)">
          <path id="path460" style="fill:#000000;fill-opacity:.62890" d="m23 27.907h9v10h-9v-10z" inkscape:connector-curvature="0"/>
        </g>
      </g>
    </mask>
    <clipPath id="clipPath466">
      <path id="path468" d="m23 27.907h9v10h-9v-10z" inkscape:connector-curvature="0"/>
    </clipPath>
    <clipPath id="clipPath470">
      <path id="path472" d="m23 28h9v10h-9v-10z" inkscape:connector-curvature="0"/>
    </clipPath>
  </defs>
  <g id="g10" transform="matrix(1.25 0 0 -1.25 0 81.134)">
    <g id="g12">
      <g id="g14">
        <g id="g16">
          <g id="g22">
            <path id="path34" style="fill-rule:evenodd;fill:url(#linearGradient24)" d="m37.039 25.52c0.055-8.64 0.016-17.148-0.117-25.519h-18c-0.375 5.305-0.828 9.973-1.36 14-0.988 7.574-2.734 14.933-5.242 22.078-0.48 1.336-1.734 4.297-3.758 8.883-1.23 2.719-1.933 5.183-2.121 7.398-0.132 1.735 0.438 3.133 1.719 4.199 0.774 0.668 2.188 1.403 4.242 2.204 0.852 0.316 2.399 0.972 4.637 1.957 2.055 0.773 3.68 1.054 4.883 0.839 1.012-0.16 3.117-1.171 6.316-3.039 3.496-2.054 5.817-3.773 6.961-5.16 1.067-1.308 1.68-10.586 1.84-27.84z" inkscape:connector-curvature="0"/>
          </g>
        </g>
      </g>
      <path id="path36" style="fill-rule:evenodd;fill:#281c23" d="m39.922 46.36c-0.27 0.293-0.883 0.774-1.844 1.442 0-0.137 0.016-2.188 0.043-6.16 0.024-2.563-0.133-4.524-0.48-5.883-0.028 2.453-0.082 4.148-0.161 5.082-0.16 2.105-0.507 3.707-1.042 4.801-0.293-0.774-0.411-2.254-0.36-4.442-0.773 2.668-1.359 4.625-1.758 5.879-1.351-2.484-2.199-4.602-2.543-6.34 0.184 1.59-0.414 3.328-1.777 5.223-0.133-0.563-0.242-1.442-0.32-2.641-0.266 0.641-0.692 1.321-1.282 2.039 0.082-0.215 0.215-0.746 0.403-1.601 0.16-0.664 0.32-1.184 0.476-1.559-1.011 1.145-1.839 2.027-2.476 2.641-1.121 1.121-2.082 1.824-2.883 2.121 0.242-0.723 0.281-1.723 0.121-3-0.215-1.789-0.32-2.817-0.32-3.082-1.094 2.48-2.309 4.359-3.641 5.64 0.242-1.148 0.375-1.972 0.399-2.48-0.051 0.078-0.504 0.707-1.36 1.879-0.558 0.801-1.051 1.336-1.48 1.601-0.16-0.347-0.719-1.082-1.68-2.199-0.727-0.836-1.141-1.617-1.238-2.34 0.105 1.063 0.144 1.911 0.121 2.539-0.856-0.718-1.563-1.878-2.121-3.48-0.188 0.375-0.348 0.855-0.481 1.441-0.105 0.664-0.199 1.161-0.281 1.481-0.691-0.617-1.199-1.617-1.519-3-0.266-1.203-0.36-2.348-0.278-3.442-0.187 0.559-0.535 1.387-1.043 2.481-0.504 1.117-0.863 1.961-1.078 2.519-0.133-1.121-0.094-2.546 0.121-4.281 0.133-0.961 0.332-2.387 0.598-4.277-0.293 0.879-0.985 2.824-2.078 5.84-0.907 2.449-1.547 4.371-1.922 5.757-0.106-1.785 0.082-3.292 0.562-4.519-2.64 4.508-2.121 9.266 1.559 14.281 1.336 1.84 3.055 3.238 5.16 4.199 1.469 0.664 3.629 1.293 6.481 1.879 4.746 0.989 9.546-0.625 14.402-4.84 4.551-3.945 7.25-8.324 8.098-13.14-0.149 0.734-0.516 1.383-1.098 1.941z" inkscape:connector-curvature="0"/>
      <path id="path38" style="fill-rule:evenodd;fill:#60b5b1" d="m38.48 57.2c-1.085-0.133-2.023-0.051-2.82 0.238 0.844-0.332 1.395-1.425 1.66-3.277 0.106-0.828 0.16-2.148 0.16-3.961-0.187 0.828-0.507 1.492-0.96 2l-0.04-2.359c-0.32 0.453-0.8 1.226-1.441 2.32-0.051-0.133-0.227-0.402-0.519-0.801-0.211-0.293-0.348-0.558-0.399-0.801-0.32 0.879-0.519 1.52-0.601 1.922-0.051-0.16-0.145-0.414-0.282-0.761-0.133-0.321-0.183-0.625-0.16-0.918-0.371 0.293-0.769 0.718-1.199 1.277-0.481 0.641-0.824 1.105-1.039 1.402 0.082-0.297 0.16-0.734 0.238-1.32-0.051 0.027-0.516 0.293-1.398 0.801-0.559 0.316-0.985 0.664-1.282 1.039 0.454-1.199 0.75-2.106 0.883-2.723 0.266-1.066 0.305-1.972 0.117-2.719-0.425 0.961-1.332 1.868-2.718 2.719-1.625 1.016-2.653 1.774-3.078 2.281l0.957-3.48c-0.985 0.402-1.813 1.188-2.481 2.359 0.055-0.238 0.082-0.879 0.082-1.918-0.375 0.348-0.972 1.094-1.801 2.239 0.106-0.879-0.464-1.852-1.718-2.918-0.668-0.563-1.614-1.36-2.84-2.403 0.238 0.375 0.465 1.016 0.679 1.922-0.375-0.293-0.921-0.894-1.64-1.801-0.078 0.879-0.094 1.52-0.039 1.922-0.508-0.722-0.828-1.281-0.961-1.679-0.188 0.984-0.199 1.812-0.039 2.476-2.055-1.066-3.496-2.293-4.321-3.679 0.028 0.613-0.187 1.335-0.64 2.16-0.559 1.043-0.879 1.722-0.961 2.043-0.266-0.801-0.359-1.684-0.277-2.641-0.961 0.934-1.524 1.984-1.68 3.16-0.27-0.668-0.375-1.547-0.32-2.64-0.536 0.453-0.922 1-1.161 1.64-0.269 0.692-0.296 1.36-0.082 2-0.8-0.883-1.398-1.883-1.8-3-0.426-1.148-0.586-2.293-0.481-3.441-0.476 1.304-0.691 2.679-0.637 4.121 0.028 1.68 0.438 2.973 1.239 3.879-1.465-1.227-2.36-2.293-2.68-3.199 0.078 1.066 0.414 2.105 1 3.121 0.586 1.011 1.32 1.824 2.199 2.437-0.773-0.133-1.387-0.519-1.84-1.16 1.52 2.426 3.481 4.469 5.879 6.121 2.457 1.707 5.028 2.774 7.723 3.199 2.773 0.426 5.437 0.496 8 0.2 2.664-0.321 4.906-1 6.719-2.04 0.132-0.078 0.828-0.441 2.082-1.078 0.636-0.347 1.265-0.75 1.879-1.203 0.668-0.504 1.464-1.039 2.398-1.597 1.547-0.934 2.359-1.426 2.441-1.481z" inkscape:connector-curvature="0"/>
      <path id="path40" style="fill-rule:evenodd;fill:#3e9a9d" d="m34.762 58.599c1.199-1.731 1.16-2.864-0.121-3.399-1.2-0.48-2.95-0.348-5.243 0.399-1.679 0.562-2.933 0.906-3.757 1.043-1.469 0.21-2.852 0.105-4.161-0.321-0.16-0.054-1.187-0.562-3.082-1.519-1.464-0.75-3.132-1.282-5-1.602-3.144-0.558-5.597-0.215-7.359 1.039-1.652 1.227-1.984 2.629-1 4.199 1.149 1.817 2.586 3.215 4.32 4.204 0.907 0.476 1.84 0.878 2.801 1.199 3.973 1.304 8.281 1.414 12.918 0.32 4.613-1.094 7.844-2.949 9.684-5.562z" inkscape:connector-curvature="0"/>
      <path id="path42" style="fill-rule:evenodd;fill:#3e9a9d" d="m17.52 53.841c1.546 0.531 2.214 0.371 2-0.481-0.215-0.851-0.961-1.508-2.239-1.961-1.203-0.453-1.801-0.265-1.801 0.563 0.028 0.797 0.708 1.426 2.04 1.879z" inkscape:connector-curvature="0"/>
      <path id="path44" style="fill-rule:evenodd;fill:#3e9a9d" d="m23.559 56.2c1.148 0.027 1.562-0.226 1.242-0.762-0.321-0.531-0.949-0.824-1.879-0.879-0.91-0.054-1.27 0.2-1.082 0.762 0.16 0.559 0.734 0.852 1.719 0.879z" inkscape:connector-curvature="0"/>
      <g id="g46">
        <g id="g62" mask="url(#mask54)">
          <g id="g90">
            <g id="g92" clip-path="url(#clipPath66)">
              <g id="g94" transform="translate(0 -.092873)">
                <g id="g98">
                  <g id="g100" clip-path="url(#clipPath70)">
                    <g id="g102">
                      <g id="g104">
                        <g id="g106">
                          <g id="g108">
                            <path id="path110" style="fill-rule:evenodd;fill:url(#radialGradient78)" d="m14.84 36.094c-0.106 0.984 0.027 1.851 0.398 2.597 0.403 0.747 0.934 1.161 1.602 1.243 0.695 0.078 1.32-0.2 1.879-0.84 0.586-0.614 0.933-1.414 1.043-2.403 0.133-0.984 0-1.851-0.403-2.597-0.398-0.75-0.933-1.16-1.597-1.242-0.696-0.079-1.321 0.203-1.883 0.839-0.559 0.614-0.906 1.414-1.039 2.403z" inkscape:connector-curvature="0"/>
                          </g>
                        </g>
                      </g>
                    </g>
                  </g>
                </g>
              </g>
            </g>
          </g>
        </g>
      </g>
      <g id="g112">
        <g id="g114">
          <g id="g120">
            <path id="path136" style="fill-rule:evenodd;fill:url(#radialGradient122)" d="m15.281 36.2c-0.109 0.906 0.012 1.719 0.36 2.442 0.371 0.691 0.867 1.066 1.48 1.117 0.613 0.082 1.172-0.172 1.68-0.758 0.531-0.586 0.851-1.336 0.961-2.242 0.105-0.907-0.016-1.707-0.364-2.399-0.371-0.695-0.863-1.082-1.476-1.16-0.617-0.082-1.176 0.172-1.684 0.762-0.504 0.586-0.824 1.332-0.957 2.238z" inkscape:connector-curvature="0"/>
          </g>
        </g>
      </g>
      <g id="g138">
        <g id="g154" mask="url(#mask146)">
          <g id="g166">
            <g id="g168" clip-path="url(#clipPath158)">
              <g id="g170" transform="translate(0 -.092873)">
                <g id="g174">
                  <g id="g176" clip-path="url(#clipPath162)">
                    <g id="g178">
                      <path id="path180" style="fill-rule:evenodd;fill:#1f1a1c" d="m24.441 40.773c0.079-0.054 0.2-0.375 0.36-0.961 0.187-0.613 0.254-0.972 0.199-1.078-0.027-0.16-0.305-0.375-0.84-0.64-0.48-0.242-0.812-0.36-1-0.36-0.16 0-0.441 0.2-0.84 0.598-0.398 0.402-0.625 0.695-0.679 0.879-0.028 0.137 0.105 0.441 0.398 0.922 0.242 0.398 0.441 0.668 0.602 0.801 0.078 0.078 0.359 0.093 0.839 0.039 0.508-0.028 0.825-0.094 0.961-0.2z" inkscape:connector-curvature="0"/>
                    </g>
                  </g>
                </g>
              </g>
            </g>
          </g>
        </g>
      </g>
      <g id="g182">
        <g id="g198" mask="url(#mask190)">
          <g id="g210">
            <g id="g212" clip-path="url(#clipPath202)">
              <g id="g214" transform="translate(0 -.092873)">
                <g id="g218">
                  <g id="g220" clip-path="url(#clipPath206)">
                    <g id="g222">
                      <path id="path224" style="fill-rule:evenodd;fill:#1f1a1c" d="m27 15.332c-0.055 0.188 0.094 0.574 0.441 1.16 0.321 0.508 0.586 0.852 0.797 1.039 0.11 0.11 0.469 0.137 1.082 0.082 0.614-0.054 1.012-0.148 1.2-0.281 0.105-0.055 0.253-0.465 0.441-1.238 0.211-0.75 0.305-1.199 0.277-1.36-0.05-0.214-0.41-0.48-1.078-0.8-0.613-0.321-1.039-0.481-1.281-0.481-0.211 0-0.559 0.254-1.039 0.758-0.508 0.508-0.785 0.883-0.84 1.121z" inkscape:connector-curvature="0"/>
                    </g>
                  </g>
                </g>
              </g>
            </g>
          </g>
        </g>
      </g>
      <g id="g226">
        <g id="g242" mask="url(#mask234)">
          <g id="g254">
            <g id="g256" clip-path="url(#clipPath246)">
              <g id="g258" transform="translate(0 -.092873)">
                <g id="g262">
                  <g id="g264" clip-path="url(#clipPath250)">
                    <g id="g266">
                      <path id="path268" style="fill-rule:evenodd;fill:#1f1a1c" d="m32.879 40.453c0.562-0.055 0.922-0.133 1.082-0.242 0.078-0.051 0.211-0.426 0.398-1.117 0.215-0.668 0.309-1.067 0.282-1.199-0.055-0.188-0.375-0.43-0.961-0.723s-0.985-0.438-1.2-0.438c-0.16 0-0.48 0.227-0.96 0.68-0.454 0.453-0.708 0.785-0.758 1-0.028 0.184 0.117 0.531 0.437 1.039 0.293 0.481 0.52 0.801 0.68 0.961 0.109 0.078 0.441 0.094 1 0.039z" inkscape:connector-curvature="0"/>
                    </g>
                  </g>
                </g>
              </g>
            </g>
          </g>
        </g>
      </g>
      <g id="g270">
        <g id="g286" mask="url(#mask278)">
          <g id="g298">
            <g id="g300" clip-path="url(#clipPath290)">
              <g id="g302" transform="translate(0 -.092873)">
                <g id="g306">
                  <g id="g308" clip-path="url(#clipPath294)">
                    <g id="g310">
                      <path id="path312" style="fill-rule:evenodd;fill:#1f1a1c" d="m21 30.094c0.695-0.293 1.105-0.547 1.238-0.762 0.082-0.105 0.094-0.641 0.043-1.598-0.054-0.961-0.136-1.507-0.242-1.64-0.133-0.215-0.641-0.387-1.519-0.52-0.852-0.109-1.415-0.121-1.68-0.043-0.238 0.082-0.547 0.508-0.918 1.281-0.375 0.774-0.547 1.309-0.524 1.602 0.028 0.238 0.364 0.625 1 1.16 0.563 0.453 0.989 0.746 1.282 0.879 0.187 0.055 0.625-0.066 1.32-0.359z" inkscape:connector-curvature="0"/>
                    </g>
                  </g>
                </g>
              </g>
            </g>
          </g>
        </g>
      </g>
      <g id="g314">
        <g id="g330" mask="url(#mask322)">
          <g id="g342">
            <g id="g344" clip-path="url(#clipPath334)">
              <g id="g346" transform="translate(0 -.092873)">
                <g id="g350">
                  <g id="g352" clip-path="url(#clipPath338)">
                    <g id="g354">
                      <path id="path356" style="fill-rule:evenodd;fill:#1f1a1c" d="m26.801 27.574c0.054-0.027 0.16-0.308 0.32-0.84 0.133-0.507 0.184-0.8 0.16-0.882-0.027-0.161-0.269-0.344-0.722-0.559-0.426-0.215-0.719-0.32-0.879-0.32-0.133 0-0.375 0.172-0.719 0.519-0.32 0.348-0.508 0.602-0.563 0.762-0.023 0.133 0.082 0.387 0.321 0.758 0.215 0.347 0.386 0.574 0.519 0.679 0.082 0.082 0.336 0.094 0.762 0.043 0.398-0.027 0.668-0.082 0.801-0.16z" inkscape:connector-curvature="0"/>
                    </g>
                  </g>
                </g>
              </g>
            </g>
          </g>
        </g>
      </g>
      <g id="g358">
        <g id="g374" mask="url(#mask366)">
          <g id="g386">
            <g id="g388" clip-path="url(#clipPath378)">
              <g id="g390" transform="translate(0 -.092873)">
                <g id="g394">
                  <g id="g396" clip-path="url(#clipPath382)">
                    <g id="g398">
                      <path id="path400" style="fill-rule:evenodd;fill:#1f1a1c" d="m34.641 35.012c0.027-0.051-0.028-0.293-0.161-0.719-0.132-0.398-0.226-0.625-0.281-0.68-0.078-0.082-0.32-0.105-0.719-0.082-0.375 0.055-0.625 0.121-0.761 0.203-0.106 0.051-0.184 0.266-0.239 0.637-0.082 0.375-0.093 0.629-0.039 0.762 0.028 0.105 0.211 0.238 0.559 0.398 0.293 0.137 0.508 0.215 0.641 0.242 0.078 0.028 0.254-0.066 0.519-0.281 0.266-0.215 0.426-0.371 0.481-0.48z" inkscape:connector-curvature="0"/>
                    </g>
                  </g>
                </g>
              </g>
            </g>
          </g>
        </g>
      </g>
      <g id="g402">
        <g id="g418" mask="url(#mask410)">
          <g id="g430">
            <g id="g432" clip-path="url(#clipPath422)">
              <g id="g434" transform="translate(0 -.092873)">
                <g id="g438">
                  <g id="g440" clip-path="url(#clipPath426)">
                    <g id="g442">
                      <path id="path444" style="fill-rule:evenodd;fill:#1f1a1c" d="m33.281 19.055c0.266-0.215 0.426-0.375 0.481-0.481 0.027-0.054-0.028-0.297-0.16-0.722-0.161-0.426-0.27-0.653-0.321-0.68-0.082-0.078-0.32-0.094-0.722-0.039-0.371 0.027-0.614 0.078-0.719 0.16-0.106 0.051-0.199 0.266-0.281 0.641-0.079 0.371-0.094 0.625-0.039 0.757 0.027 0.11 0.214 0.243 0.558 0.403 0.297 0.133 0.524 0.211 0.684 0.238 0.078 0.027 0.25-0.066 0.519-0.277z" inkscape:connector-curvature="0"/>
                    </g>
                  </g>
                </g>
              </g>
            </g>
          </g>
        </g>
      </g>
      <g id="g446">
        <g id="g462" mask="url(#mask454)">
          <g id="g474">
            <g id="g476" clip-path="url(#clipPath466)">
              <g id="g478" transform="translate(0 -.092873)">
                <g id="g482">
                  <g id="g484" clip-path="url(#clipPath470)">
                    <g id="g486">
                      <path id="path488" style="fill-rule:evenodd;fill:#1f1a1c" d="m27.84 37.332c1.254-0.078 2.055-0.254 2.398-0.52 0.188-0.132 0.496-0.972 0.922-2.519 0.399-1.547 0.574-2.453 0.52-2.719-0.078-0.402-0.785-0.949-2.121-1.64-1.278-0.641-2.161-0.961-2.637-0.961-0.402 0-1.121 0.507-2.16 1.519-0.989 1.016-1.547 1.762-1.684 2.242-0.105 0.399 0.215 1.184 0.961 2.36 0.641 1.039 1.16 1.734 1.563 2.078 0.238 0.215 0.984 0.266 2.238 0.16z" inkscape:connector-curvature="0"/>
                    </g>
                  </g>
                </g>
              </g>
            </g>
          </g>
        </g>
      </g>
    </g>
  </g>
<metadata><rdf:RDF><cc:Work><dc:format>image/svg+xml</dc:format><dc:type rdf:resource="http://purl.org/dc/dcmitype/StillImage"/><cc:license rdf:resource="http://creativecommons.org/licenses/publicdomain/"/><dc:publisher><cc:Agent rdf:about="http://openclipart.org/"><dc:title>Openclipart</dc:title></cc:Agent></dc:publisher></cc:Work><cc:License rdf:about="http://creativecommons.org/licenses/publicdomain/"><cc:permits rdf:resource="http://creativecommons.org/ns#Reproduction"/><cc:permits rdf:resource="http://creativecommons.org/ns#Distribution"/><cc:permits rdf:resource="http://creativecommons.org/ns#DerivativeWorks"/></cc:License></rdf:RDF></metadata></svg>
